<svg xmlns="http://www.w3.org/2000/svg" width="163.481" height="31.897" viewBox="0 0 163.481 31.897">
  <g id="グループ_1592" data-name="グループ 1592" transform="translate(-3221.974 -3128.238)">
    <path id="パス_632" data-name="パス 632" d="M11.66-7.018a15.768,15.768,0,0,1,1.782,1.1H11.286c.044.484.066.748.088,1.342l-1.8-.858A18.427,18.427,0,0,1,9.152-3.5c-.088-.77-.2-1.518-.418-2.706l-1.8.352a24.813,24.813,0,0,1,.4,4.2l1.056-.22a7.793,7.793,0,0,1-.836,1.3L9.988,1.3a16.613,16.613,0,0,0,1.386-3.784V.022c0,.726.11,1.1.418,1.32a4.694,4.694,0,0,0,2.574.44c3.234,0,3.7-.4,3.982-3.256A13.885,13.885,0,0,1,18.854.814L21.8-.726A27.591,27.591,0,0,0,19.58-6.38L16.874-5.126a16.755,16.755,0,0,1,1.166,2.64,12.262,12.262,0,0,1-2.354-.836c-.022.99-.022,1.5-.022,1.518-.044.352-.11.528-.242.594a2.257,2.257,0,0,1-.594.088c-.4,0-.462-.066-.462-.4V-5.126a9.921,9.921,0,0,1,.9.946l2.046-2.134A17.634,17.634,0,0,0,14.96-8.03c1.606-.176,1.87-.22,2.838-.374.264.594.33.726.682,1.474l2.728-1.738a32.585,32.585,0,0,0-3.5-5.258l-2.442,1.254c.572.814.748,1.078,1.144,1.694-.88.088-1.672.132-2.684.2a40.167,40.167,0,0,0,2.112-3.938l-2.75-.77c1.056-1.3,1.056-1.3,1.408-1.76l-2.882-1.54a11.235,11.235,0,0,1-2.9,3.256l-1.958-.99a24.33,24.33,0,0,1-2,3.608,6.005,6.005,0,0,0-.462-.66,30.837,30.837,0,0,0,2.068-3.674,3.918,3.918,0,0,1,.352-.638L3.872-19.008a12.468,12.468,0,0,1-1.3,3.19l-.528-.638L.594-13.772a26.611,26.611,0,0,1,2.42,3.388c-.308.418-.308.44-.55.748H2.156l-.2.022A9.256,9.256,0,0,1,.7-9.7L.968-6.6c.44-.066,1.232-.132,2.816-.22V-.374a17.213,17.213,0,0,1-.132,2.42h3.1A13.329,13.329,0,0,1,6.622-.4V-7.04a2.443,2.443,0,0,0,.506-.044c.132,0,.132,0,.462-.022l.11.814,2-.594A23.431,23.431,0,0,0,8.228-11.77l-1.54.55c.792-1.1,1.3-1.8,1.672-2.42a8.866,8.866,0,0,1,1.122,1.628,16.8,16.8,0,0,0,3.014-2.75,24.394,24.394,0,0,1-2.068,4.048c-.154,0-.286.022-.374.022H9.768a2.519,2.519,0,0,1-.33-.022L9.922-7.5a8.19,8.19,0,0,1,1.716-.2c.22-.022.528-.044.968-.088Zm-5.126-4a12.977,12.977,0,0,1,.44,1.232c-.66.066-.792.066-1.474.11C5.984-10.3,6.182-10.56,6.534-11.022ZM1.32-6.182A24.557,24.557,0,0,1,.594-.154L2.728.968A36.28,36.28,0,0,0,3.41-5.9ZM14.7-17.226c.242.264.374.4.572.638a14.838,14.838,0,0,0,2.42,2.508,13.616,13.616,0,0,0,2.464,1.738,13.042,13.042,0,0,1,1.628-3.036,10.659,10.659,0,0,1-4.466-3.454ZM26.95-9.5A20.329,20.329,0,0,1,29-9.592H37a18.456,18.456,0,0,1,2.112.088v-1.21a23.464,23.464,0,0,0,2.97,1.43,12.337,12.337,0,0,1,1.54-3.454,18.287,18.287,0,0,1-5.17-2.442,12.574,12.574,0,0,1-3.762-3.454H31.108a13.1,13.1,0,0,1-3.652,3.542,17.463,17.463,0,0,1-5.1,2.508A11.771,11.771,0,0,1,24-9.35a21.4,21.4,0,0,0,2.948-1.408Zm2.9-3.124a15.615,15.615,0,0,0,3.1-3.036,17.088,17.088,0,0,0,3.234,3.036ZM28.578,1.892V.99H37.4v.9h3.542A14.686,14.686,0,0,1,40.81-.55V-6.006a16.609,16.609,0,0,1,.11-2.332c-.528.044-1.166.066-2.134.066H27.17c-.968,0-1.606-.022-2.112-.066a21.758,21.758,0,0,1,.11,2.332V-.572a18.6,18.6,0,0,1-.132,2.464Zm0-7.106H37.4v3.146H28.578ZM48-14.08a28.725,28.725,0,0,1,3.19-.11h7.128c1.518,0,2.552.044,3.388.11v-3.7a21.1,21.1,0,0,1-3.454.176H51.238A20.06,20.06,0,0,1,48-17.776Zm-1.826,5.5a32.994,32.994,0,0,1,3.5-.132H59.2a9.571,9.571,0,0,1-3.388,4.4,15.155,15.155,0,0,1-5.808,2.574A12.265,12.265,0,0,1,52.47,1.87a19.8,19.8,0,0,0,6.27-3.432,16.575,16.575,0,0,0,4.884-7.546,4.412,4.412,0,0,1,.616-1.386l-1.716-1.848a3.58,3.58,0,0,1-1.76.242H49.72a23.293,23.293,0,0,1-3.542-.176ZM68-13.926a23.5,23.5,0,0,1,5.984,4.642l2.6-3.432a32.094,32.094,0,0,0-6.05-4.312ZM69.366.858c.594-.176.726-.2,1.584-.4,4.092-.946,6.182-1.76,8.558-3.3,3.08-1.98,5.17-4.576,7.172-8.91A14.2,14.2,0,0,1,83.446-14.7a20.254,20.254,0,0,1-2.156,4.312A13.229,13.229,0,0,1,74.844-4.95a22.075,22.075,0,0,1-6.622,1.584ZM95.876-14.1l-3.058.462a22.106,22.106,0,0,1-3.234.352l.594,3.762a26.115,26.115,0,0,1,3.278-.616l3.036-.484L97-7.854l-4.2.66a25.758,25.758,0,0,1-3.146.352l.594,3.74a23.514,23.514,0,0,1,3.014-.616L97.614-4.4l.572,3.168a16.089,16.089,0,0,1,.4,3.058l4.18-.682A19.609,19.609,0,0,1,102.1-1.8l-.616-3.19,4.158-.638c1.848-.264,1.848-.264,3.1-.4l-.66-3.718a20.5,20.5,0,0,1-3.168.682l-4.07.616-.528-2.772,3.432-.528c2.376-.352,2.376-.352,3.124-.418l-.616-3.7a20.959,20.959,0,0,1-3.146.638l-3.432.528-.242-1.21a17.93,17.93,0,0,1-.308-2.442l-4.048.616a14.168,14.168,0,0,1,.572,2.486ZM112-13.926a23.5,23.5,0,0,1,5.984,4.642l2.6-3.432a32.094,32.094,0,0,0-6.05-4.312ZM113.366.858c.594-.176.726-.2,1.584-.4,4.092-.946,6.182-1.76,8.558-3.3,3.08-1.98,5.17-4.576,7.172-8.91a14.2,14.2,0,0,1-3.234-2.948,20.254,20.254,0,0,1-2.156,4.312,13.229,13.229,0,0,1-6.446,5.434,22.075,22.075,0,0,1-6.622,1.584Zm36.806-15.576.682-.242a13.023,13.023,0,0,0-1.826-3.366l-2.178.7A13.307,13.307,0,0,1,148.1-15.51h-.484l-4.994.044a2.467,2.467,0,0,0,.176-.374c.022-.022.11-.242.264-.572.022-.066.11-.264.2-.462.066-.154.132-.286.154-.352.132-.286.154-.308.264-.528l-4.158-.748a8.381,8.381,0,0,1-.946,2.64,17.587,17.587,0,0,1-5.852,6.71,11.218,11.218,0,0,1,3.124,2.64,21.223,21.223,0,0,0,4.994-5.522L146.7-12.1c-1.628,5.126-5.214,8.624-11.022,10.714a11.2,11.2,0,0,1,2.64,3.366c6.6-2.97,10.318-7.062,12.408-13.662a9.858,9.858,0,0,1,.572-1.5Zm-.132-3.85a16.305,16.305,0,0,1,1.8,3.366l2.09-.77a14.732,14.732,0,0,0-1.826-3.278Z" transform="translate(3226.185 3152.68)" fill="none" stroke="#fff" stroke-linecap="round" stroke-linejoin="round" stroke-width="8"/>
    <path id="パス_633" data-name="パス 633" d="M11.66-7.018a15.768,15.768,0,0,1,1.782,1.1H11.286c.044.484.066.748.088,1.342l-1.8-.858A18.427,18.427,0,0,1,9.152-3.5c-.088-.77-.2-1.518-.418-2.706l-1.8.352a24.813,24.813,0,0,1,.4,4.2l1.056-.22a7.793,7.793,0,0,1-.836,1.3L9.988,1.3a16.613,16.613,0,0,0,1.386-3.784V.022c0,.726.11,1.1.418,1.32a4.694,4.694,0,0,0,2.574.44c3.234,0,3.7-.4,3.982-3.256A13.885,13.885,0,0,1,18.854.814L21.8-.726A27.591,27.591,0,0,0,19.58-6.38L16.874-5.126a16.755,16.755,0,0,1,1.166,2.64,12.262,12.262,0,0,1-2.354-.836c-.022.99-.022,1.5-.022,1.518-.044.352-.11.528-.242.594a2.257,2.257,0,0,1-.594.088c-.4,0-.462-.066-.462-.4V-5.126a9.921,9.921,0,0,1,.9.946l2.046-2.134A17.634,17.634,0,0,0,14.96-8.03c1.606-.176,1.87-.22,2.838-.374.264.594.33.726.682,1.474l2.728-1.738a32.585,32.585,0,0,0-3.5-5.258l-2.442,1.254c.572.814.748,1.078,1.144,1.694-.88.088-1.672.132-2.684.2a40.167,40.167,0,0,0,2.112-3.938l-2.75-.77c1.056-1.3,1.056-1.3,1.408-1.76l-2.882-1.54a11.235,11.235,0,0,1-2.9,3.256l-1.958-.99a24.33,24.33,0,0,1-2,3.608,6.005,6.005,0,0,0-.462-.66,30.837,30.837,0,0,0,2.068-3.674,3.918,3.918,0,0,1,.352-.638L3.872-19.008a12.468,12.468,0,0,1-1.3,3.19l-.528-.638L.594-13.772a26.611,26.611,0,0,1,2.42,3.388c-.308.418-.308.44-.55.748H2.156l-.2.022A9.256,9.256,0,0,1,.7-9.7L.968-6.6c.44-.066,1.232-.132,2.816-.22V-.374a17.213,17.213,0,0,1-.132,2.42h3.1A13.329,13.329,0,0,1,6.622-.4V-7.04a2.443,2.443,0,0,0,.506-.044c.132,0,.132,0,.462-.022l.11.814,2-.594A23.431,23.431,0,0,0,8.228-11.77l-1.54.55c.792-1.1,1.3-1.8,1.672-2.42a8.866,8.866,0,0,1,1.122,1.628,16.8,16.8,0,0,0,3.014-2.75,24.394,24.394,0,0,1-2.068,4.048c-.154,0-.286.022-.374.022H9.768a2.519,2.519,0,0,1-.33-.022L9.922-7.5a8.19,8.19,0,0,1,1.716-.2c.22-.022.528-.044.968-.088Zm-5.126-4a12.977,12.977,0,0,1,.44,1.232c-.66.066-.792.066-1.474.11C5.984-10.3,6.182-10.56,6.534-11.022ZM1.32-6.182A24.557,24.557,0,0,1,.594-.154L2.728.968A36.28,36.28,0,0,0,3.41-5.9ZM14.7-17.226c.242.264.374.4.572.638a14.838,14.838,0,0,0,2.42,2.508,13.616,13.616,0,0,0,2.464,1.738,13.042,13.042,0,0,1,1.628-3.036,10.659,10.659,0,0,1-4.466-3.454ZM26.95-9.5A20.329,20.329,0,0,1,29-9.592H37a18.456,18.456,0,0,1,2.112.088v-1.21a23.464,23.464,0,0,0,2.97,1.43,12.337,12.337,0,0,1,1.54-3.454,18.287,18.287,0,0,1-5.17-2.442,12.574,12.574,0,0,1-3.762-3.454H31.108a13.1,13.1,0,0,1-3.652,3.542,17.463,17.463,0,0,1-5.1,2.508A11.771,11.771,0,0,1,24-9.35a21.4,21.4,0,0,0,2.948-1.408Zm2.9-3.124a15.615,15.615,0,0,0,3.1-3.036,17.088,17.088,0,0,0,3.234,3.036ZM28.578,1.892V.99H37.4v.9h3.542A14.686,14.686,0,0,1,40.81-.55V-6.006a16.609,16.609,0,0,1,.11-2.332c-.528.044-1.166.066-2.134.066H27.17c-.968,0-1.606-.022-2.112-.066a21.758,21.758,0,0,1,.11,2.332V-.572a18.6,18.6,0,0,1-.132,2.464Zm0-7.106H37.4v3.146H28.578ZM48-14.08a28.725,28.725,0,0,1,3.19-.11h7.128c1.518,0,2.552.044,3.388.11v-3.7a21.1,21.1,0,0,1-3.454.176H51.238A20.06,20.06,0,0,1,48-17.776Zm-1.826,5.5a32.994,32.994,0,0,1,3.5-.132H59.2a9.571,9.571,0,0,1-3.388,4.4,15.155,15.155,0,0,1-5.808,2.574A12.265,12.265,0,0,1,52.47,1.87a19.8,19.8,0,0,0,6.27-3.432,16.575,16.575,0,0,0,4.884-7.546,4.412,4.412,0,0,1,.616-1.386l-1.716-1.848a3.58,3.58,0,0,1-1.76.242H49.72a23.293,23.293,0,0,1-3.542-.176ZM68-13.926a23.5,23.5,0,0,1,5.984,4.642l2.6-3.432a32.094,32.094,0,0,0-6.05-4.312ZM69.366.858c.594-.176.726-.2,1.584-.4,4.092-.946,6.182-1.76,8.558-3.3,3.08-1.98,5.17-4.576,7.172-8.91A14.2,14.2,0,0,1,83.446-14.7a20.254,20.254,0,0,1-2.156,4.312A13.229,13.229,0,0,1,74.844-4.95a22.075,22.075,0,0,1-6.622,1.584ZM95.876-14.1l-3.058.462a22.106,22.106,0,0,1-3.234.352l.594,3.762a26.115,26.115,0,0,1,3.278-.616l3.036-.484L97-7.854l-4.2.66a25.758,25.758,0,0,1-3.146.352l.594,3.74a23.514,23.514,0,0,1,3.014-.616L97.614-4.4l.572,3.168a16.089,16.089,0,0,1,.4,3.058l4.18-.682A19.609,19.609,0,0,1,102.1-1.8l-.616-3.19,4.158-.638c1.848-.264,1.848-.264,3.1-.4l-.66-3.718a20.5,20.5,0,0,1-3.168.682l-4.07.616-.528-2.772,3.432-.528c2.376-.352,2.376-.352,3.124-.418l-.616-3.7a20.959,20.959,0,0,1-3.146.638l-3.432.528-.242-1.21a17.93,17.93,0,0,1-.308-2.442l-4.048.616a14.168,14.168,0,0,1,.572,2.486ZM112-13.926a23.5,23.5,0,0,1,5.984,4.642l2.6-3.432a32.094,32.094,0,0,0-6.05-4.312ZM113.366.858c.594-.176.726-.2,1.584-.4,4.092-.946,6.182-1.76,8.558-3.3,3.08-1.98,5.17-4.576,7.172-8.91a14.2,14.2,0,0,1-3.234-2.948,20.254,20.254,0,0,1-2.156,4.312,13.229,13.229,0,0,1-6.446,5.434,22.075,22.075,0,0,1-6.622,1.584Zm36.806-15.576.682-.242a13.023,13.023,0,0,0-1.826-3.366l-2.178.7A13.307,13.307,0,0,1,148.1-15.51h-.484l-4.994.044a2.467,2.467,0,0,0,.176-.374c.022-.022.11-.242.264-.572.022-.066.11-.264.2-.462.066-.154.132-.286.154-.352.132-.286.154-.308.264-.528l-4.158-.748a8.381,8.381,0,0,1-.946,2.64,17.587,17.587,0,0,1-5.852,6.71,11.218,11.218,0,0,1,3.124,2.64,21.223,21.223,0,0,0,4.994-5.522L146.7-12.1c-1.628,5.126-5.214,8.624-11.022,10.714a11.2,11.2,0,0,1,2.64,3.366c6.6-2.97,10.318-7.062,12.408-13.662a9.858,9.858,0,0,1,.572-1.5Zm-.132-3.85a16.305,16.305,0,0,1,1.8,3.366l2.09-.77a14.732,14.732,0,0,0-1.826-3.278Z" transform="translate(3226.185 3152.078)" fill="#3492b4"/>
  </g>
</svg>
