<svg xmlns="http://www.w3.org/2000/svg" width="94.397" height="31.617" viewBox="0 0 94.397 31.617">
  <g id="グループ_1594" data-name="グループ 1594" transform="translate(-3384.555 -3971.636)">
    <path id="パス_637" data-name="パス 637" d="M13.772-15.62a23.931,23.931,0,0,1-4.026.748v-.7a17.316,17.316,0,0,1,.132-2.75H6.072a16.138,16.138,0,0,1,.154,2.97v.7c-.132,0-.132,0-.44.022H4.95a16.626,16.626,0,0,1-3.014-.2l.044,3.454a4.335,4.335,0,0,1,.462-.022l2.134.044L6.248-11.4v2.6A11.62,11.62,0,0,0,2.97-6.842,5.185,5.185,0,0,0,.924-3.19,3.818,3.818,0,0,0,2.354-.33,7.828,7.828,0,0,0,7.106,1.408,2.645,2.645,0,0,0,9.35.44c.33-.462.418-.946.418-2.288V-2.42L9.746-6.314a11.736,11.736,0,0,1,3.234-.44,4.917,4.917,0,0,1,2.618.572,2.363,2.363,0,0,1,1.078,1.936c0,1.122-.638,1.892-1.584,1.892a1.029,1.029,0,0,1-.968-.66A3.629,3.629,0,0,1,13.948-4.4c0-.462.022-.7.044-1.166a13.079,13.079,0,0,1-3.344,1.342v.55c0,3.168,1.584,4.994,4.312,4.994a5.333,5.333,0,0,0,5.478-5.434,5.509,5.509,0,0,0-1.5-3.894c-1.276-1.32-3.3-2-6.006-2a12.882,12.882,0,0,0-3.212.374v-1.936c1.078-.11,2.464-.286,3.322-.44.44-.088.506-.088.836-.132ZM6.248-3.036c0,.726-.066.88-.352.88a2.162,2.162,0,0,1-.99-.352.863.863,0,0,1-.484-.7c0-.616.792-1.474,1.826-1.958Zm15.2-9.24a18.6,18.6,0,0,0-4.334-4.862l-2.9,1.958a19.176,19.176,0,0,1,4.334,5.17ZM27.28-13c-.044,1.98-.044,1.98-.088,2.86H25.52a14.885,14.885,0,0,1-2.574-.132v3.322a14.936,14.936,0,0,1,2.508-.132h1.364a8.4,8.4,0,0,1-4.356,6.006,8.78,8.78,0,0,1,2.354,2.794A12.305,12.305,0,0,0,29-3.388,13.225,13.225,0,0,0,32.208.44a15.7,15.7,0,0,1,1.5-2.992v1.408c0,.836-.044,1.8-.11,2.574h3.344V0H39.27V1.452h3.388c-.088-.99-.132-1.892-.132-2.882V-14.872a17.793,17.793,0,0,1,.11-2.332,14.8,14.8,0,0,1-2.09.11H35.662a13.433,13.433,0,0,1-2.046-.11c.066.682.088,1.43.088,2.332v11.9a12.68,12.68,0,0,1-3.63-3.85c.022-.11.022-.154.044-.264h.968A18.993,18.993,0,0,1,33.264-7v-3.256a12.748,12.748,0,0,1-2.046.11h-.77c.044-.792.044-.792.088-2.86h.418a20.523,20.523,0,0,1,2.178.088v-3.278a14.275,14.275,0,0,1-2.178.11H28.072c.176-.462.242-.7.352-1.034a10.174,10.174,0,0,1,.374-1.122l-3.344-.7A6.247,6.247,0,0,1,25.1-17.4a12.187,12.187,0,0,1-2.662,4.8,7.9,7.9,0,0,1,2.552,2.354A16.874,16.874,0,0,0,26.73-13ZM37-14.058H39.27V-3.08H37Zm12.606-1.32a42.664,42.664,0,0,0,9.5,2.882l1.166-3.542c-1.034-.154-2.926-.55-4.422-.946a22.179,22.179,0,0,1-4.488-1.562Zm-1.694,1.43a12.8,12.8,0,0,1-.132,1.408c-.44,3.036-.9,6.556-1.012,7.612a2.64,2.64,0,0,1-.066.44l3.652.154a3.828,3.828,0,0,1,1.232-.99,9.518,9.518,0,0,1,4.818-1.32c1.98,0,3.124.682,3.124,1.848,0,1.562-1.936,2.6-4.84,2.6a20.418,20.418,0,0,1-5.874-1.034A15.261,15.261,0,0,1,49.324.682a23.506,23.506,0,0,0,5.522.66A10.792,10.792,0,0,0,61.138-.242a5.563,5.563,0,0,0,2.486-4.664c0-3.124-2.6-5.17-6.512-5.17A10.976,10.976,0,0,0,50.82-8.36a48.316,48.316,0,0,1,.946-5.346Zm22.44-3.85a19.106,19.106,0,0,1,.176,3.476v.66c-1.826.088-2.882.132-3.212.132a4.939,4.939,0,0,1-.748-.044l.22,3.674a32.857,32.857,0,0,1,3.74-.33v1.342a48.82,48.82,0,0,0,.2,5.786A4.085,4.085,0,0,0,73.48.55a14.581,14.581,0,0,0,4.642.55A44.759,44.759,0,0,0,83.248.792C84.5.638,84.5.638,85.426.572l-.242-4.048a20.955,20.955,0,0,1-6.886.99c-2.838,0-3.674-.308-3.96-1.452-.154-.638-.176-1.694-.176-6.468,1.738-.088,3.608-.176,5.632-.242-.044,2.486-.176,2.9-.88,2.9a7.75,7.75,0,0,1-2.97-.858,15.882,15.882,0,0,1,.264,3.036v.55a10.385,10.385,0,0,0,3.344.682,3.471,3.471,0,0,0,2.662-.9c.836-.946,1.078-2.2,1.078-5.478,1.8-.022,1.87-.022,2.156-.022.7,0,1.1.022,1.848.066l-.022-3.74c-.726.088-.726.088-3.982.22v-1.8a15.631,15.631,0,0,1,.11-2.068H79.618c.088.748.176,2.42.176,3.762v.242c-2.442.11-3.322.154-5.588.242a25.792,25.792,0,0,1,.22-3.982Z" transform="translate(3387.631 3995.5)" fill="none" stroke="#1d4e90" stroke-linecap="round" stroke-linejoin="round" stroke-width="8"/>
    <path id="パス_636" data-name="パス 636" d="M13.772-15.62a23.931,23.931,0,0,1-4.026.748v-.7a17.316,17.316,0,0,1,.132-2.75H6.072a16.138,16.138,0,0,1,.154,2.97v.7c-.132,0-.132,0-.44.022H4.95a16.626,16.626,0,0,1-3.014-.2l.044,3.454a4.335,4.335,0,0,1,.462-.022l2.134.044L6.248-11.4v2.6A11.62,11.62,0,0,0,2.97-6.842,5.185,5.185,0,0,0,.924-3.19,3.818,3.818,0,0,0,2.354-.33,7.828,7.828,0,0,0,7.106,1.408,2.645,2.645,0,0,0,9.35.44c.33-.462.418-.946.418-2.288V-2.42L9.746-6.314a11.736,11.736,0,0,1,3.234-.44,4.917,4.917,0,0,1,2.618.572,2.363,2.363,0,0,1,1.078,1.936c0,1.122-.638,1.892-1.584,1.892a1.029,1.029,0,0,1-.968-.66A3.629,3.629,0,0,1,13.948-4.4c0-.462.022-.7.044-1.166a13.079,13.079,0,0,1-3.344,1.342v.55c0,3.168,1.584,4.994,4.312,4.994a5.333,5.333,0,0,0,5.478-5.434,5.509,5.509,0,0,0-1.5-3.894c-1.276-1.32-3.3-2-6.006-2a12.882,12.882,0,0,0-3.212.374v-1.936c1.078-.11,2.464-.286,3.322-.44.44-.088.506-.088.836-.132ZM6.248-3.036c0,.726-.066.88-.352.88a2.162,2.162,0,0,1-.99-.352.863.863,0,0,1-.484-.7c0-.616.792-1.474,1.826-1.958Zm15.2-9.24a18.6,18.6,0,0,0-4.334-4.862l-2.9,1.958a19.176,19.176,0,0,1,4.334,5.17ZM27.28-13c-.044,1.98-.044,1.98-.088,2.86H25.52a14.885,14.885,0,0,1-2.574-.132v3.322a14.936,14.936,0,0,1,2.508-.132h1.364a8.4,8.4,0,0,1-4.356,6.006,8.78,8.78,0,0,1,2.354,2.794A12.305,12.305,0,0,0,29-3.388,13.225,13.225,0,0,0,32.208.44a15.7,15.7,0,0,1,1.5-2.992v1.408c0,.836-.044,1.8-.11,2.574h3.344V0H39.27V1.452h3.388c-.088-.99-.132-1.892-.132-2.882V-14.872a17.793,17.793,0,0,1,.11-2.332,14.8,14.8,0,0,1-2.09.11H35.662a13.433,13.433,0,0,1-2.046-.11c.066.682.088,1.43.088,2.332v11.9a12.68,12.68,0,0,1-3.63-3.85c.022-.11.022-.154.044-.264h.968A18.993,18.993,0,0,1,33.264-7v-3.256a12.748,12.748,0,0,1-2.046.11h-.77c.044-.792.044-.792.088-2.86h.418a20.523,20.523,0,0,1,2.178.088v-3.278a14.275,14.275,0,0,1-2.178.11H28.072c.176-.462.242-.7.352-1.034a10.174,10.174,0,0,1,.374-1.122l-3.344-.7A6.247,6.247,0,0,1,25.1-17.4a12.187,12.187,0,0,1-2.662,4.8,7.9,7.9,0,0,1,2.552,2.354A16.874,16.874,0,0,0,26.73-13ZM37-14.058H39.27V-3.08H37Zm12.606-1.32a42.664,42.664,0,0,0,9.5,2.882l1.166-3.542c-1.034-.154-2.926-.55-4.422-.946a22.179,22.179,0,0,1-4.488-1.562Zm-1.694,1.43a12.8,12.8,0,0,1-.132,1.408c-.44,3.036-.9,6.556-1.012,7.612a2.64,2.64,0,0,1-.066.44l3.652.154a3.828,3.828,0,0,1,1.232-.99,9.518,9.518,0,0,1,4.818-1.32c1.98,0,3.124.682,3.124,1.848,0,1.562-1.936,2.6-4.84,2.6a20.418,20.418,0,0,1-5.874-1.034A15.261,15.261,0,0,1,49.324.682a23.506,23.506,0,0,0,5.522.66A10.792,10.792,0,0,0,61.138-.242a5.563,5.563,0,0,0,2.486-4.664c0-3.124-2.6-5.17-6.512-5.17A10.976,10.976,0,0,0,50.82-8.36a48.316,48.316,0,0,1,.946-5.346Zm22.44-3.85a19.106,19.106,0,0,1,.176,3.476v.66c-1.826.088-2.882.132-3.212.132a4.939,4.939,0,0,1-.748-.044l.22,3.674a32.857,32.857,0,0,1,3.74-.33v1.342a48.82,48.82,0,0,0,.2,5.786A4.085,4.085,0,0,0,73.48.55a14.581,14.581,0,0,0,4.642.55A44.759,44.759,0,0,0,83.248.792C84.5.638,84.5.638,85.426.572l-.242-4.048a20.955,20.955,0,0,1-6.886.99c-2.838,0-3.674-.308-3.96-1.452-.154-.638-.176-1.694-.176-6.468,1.738-.088,3.608-.176,5.632-.242-.044,2.486-.176,2.9-.88,2.9a7.75,7.75,0,0,1-2.97-.858,15.882,15.882,0,0,1,.264,3.036v.55a10.385,10.385,0,0,0,3.344.682,3.471,3.471,0,0,0,2.662-.9c.836-.946,1.078-2.2,1.078-5.478,1.8-.022,1.87-.022,2.156-.022.7,0,1.1.022,1.848.066l-.022-3.74c-.726.088-.726.088-3.982.22v-1.8a15.631,15.631,0,0,1,.11-2.068H79.618c.088.748.176,2.42.176,3.762v.242c-2.442.11-3.322.154-5.588.242a25.792,25.792,0,0,1,.22-3.982Z" transform="translate(3387.631 3995.5)" fill="#fff"/>
  </g>
</svg>
