<svg xmlns="http://www.w3.org/2000/svg" width="120.637" height="31.827" viewBox="0 0 120.637 31.827">
  <g id="グループ_1589" data-name="グループ 1589" transform="translate(-2812.45 -474.462)">
    <path id="パス_628" data-name="パス 628" d="M20.724.264a58.293,58.293,0,0,0-5.39-8.4l-2.97,1.628A28.505,28.505,0,0,1,14.7-3.168a61.114,61.114,0,0,1-6.314.528,66.211,66.211,0,0,0,4.026-8.03,3.56,3.56,0,0,1,.33-.7L8.8-12.342A15.423,15.423,0,0,1,7.458-8.58a57.052,57.052,0,0,1-3.1,6.094H3.168a15.2,15.2,0,0,1-1.606-.066L2.09,1.21a11.705,11.705,0,0,1,1.232-.132,111.289,111.289,0,0,0,13-1.3c.418.858.572,1.188,1.122,2.354ZM6.666-18.414a8.587,8.587,0,0,1-1.122,2.64A16.3,16.3,0,0,1,.418-10.34a16.081,16.081,0,0,1,2.2,3.212,23.051,23.051,0,0,0,3.476-3.366A26.391,26.391,0,0,0,9.68-15.95a7.307,7.307,0,0,1,.594-1.1Zm5.28,1.342a3.25,3.25,0,0,1,.2.4,20.971,20.971,0,0,0,2.53,4.51A22.661,22.661,0,0,0,19.6-7.128a16.921,16.921,0,0,1,2.156-3.366,15.376,15.376,0,0,1-4.2-3.63,13.68,13.68,0,0,1-2.376-4.29Zm28.666,1.716,1.716-.88a17.85,17.85,0,0,0-1.98-2.288L37.84-17.248a11.112,11.112,0,0,1,1.672,1.892H37.488c-.022-1.144-.022-1.606-.022-1.8a8.027,8.027,0,0,1,.088-1.3h-3.63a24.236,24.236,0,0,1,.176,3.1H25.828a24.947,24.947,0,0,1-2.86-.132v3.366c.968-.088,1.826-.132,2.86-.132H34.21C34.5-7.48,35.266-4.092,36.586-1.606,37.708.528,39.16,1.8,40.436,1.8A2.242,2.242,0,0,0,42.306.572,11.936,11.936,0,0,0,43.56-3.96a12.439,12.439,0,0,1-2.728-1.628,11.683,11.683,0,0,1-.616,3.212A9.617,9.617,0,0,1,38.676-5.5,25.592,25.592,0,0,1,37.6-12.254h2.53a24.161,24.161,0,0,1,2.86.132v-3.344a12.483,12.483,0,0,1-2.134.11ZM27.038-7.194v4.576a30.787,30.787,0,0,1-4.114.4l.484,3.454c.44-.11.792-.154,1.518-.264,3.3-.484,5.412-.88,9.526-1.826V-3.982c-1.914.44-2.728.616-4.114.858v-4.07H31.2c.814,0,1.76.044,2.442.088v-3.168a22.993,22.993,0,0,1-2.464.11H26.2a23.626,23.626,0,0,1-2.508-.11v3.168c.682-.044,1.628-.088,2.42-.088ZM52.03-18.612a8.394,8.394,0,0,1-.946,2.64,17.31,17.31,0,0,1-5.852,6.71,10.915,10.915,0,0,1,3.124,2.64,20.639,20.639,0,0,0,4.994-5.522L59.2-12.21a15.454,15.454,0,0,1-3.674,6.248A19.272,19.272,0,0,1,48.18-1.474,10.169,10.169,0,0,1,50.82,1.87a22.719,22.719,0,0,0,8.1-5.676,23.26,23.26,0,0,0,4.554-8.712,5.4,5.4,0,0,1,.638-1.562l-1.826-1.8a3.675,3.675,0,0,1-1.628.242l-5.522.066c.154-.308.154-.308.44-.946q.066-.132.2-.462c.066-.132.11-.264.154-.33a3.235,3.235,0,0,1,.264-.55Zm30.448.374a16.143,16.143,0,0,1-4,4.026,31.876,31.876,0,0,1-11.682,5.72A11.813,11.813,0,0,1,68.9-4.95,37.447,37.447,0,0,0,76.1-8.206v6.072a29.891,29.891,0,0,1-.132,3.542h4.268A31.442,31.442,0,0,1,80.1-2.156v-8.47a36.876,36.876,0,0,0,5.082-4.422,7.872,7.872,0,0,1,.858-.814Zm19.1,1.694-7.018.11H93.324a20.328,20.328,0,0,1-2.31-.132l.11,3.894a28.141,28.141,0,0,1,3.5-.2l5.72-.11A19.892,19.892,0,0,1,88.792-2.046,11.639,11.639,0,0,1,91.256,1.43a24.43,24.43,0,0,0,8.1-6.05,36.191,36.191,0,0,1,6.314,6.27l3.08-3.278a54.337,54.337,0,0,0-7-5.962,24.327,24.327,0,0,0,3.014-5.478,6.034,6.034,0,0,1,.484-1.078l-.2-.462,1.43-.506a16.255,16.255,0,0,0-1.936-3.5l-2.178.7a16.282,16.282,0,0,1,.9,1.364Zm4.07-2.134a15.7,15.7,0,0,1,1.914,3.454l2.112-.748a15.47,15.47,0,0,0-1.958-3.388Z" transform="translate(2818 498.5)" fill="none" stroke="#fff" stroke-linecap="round" stroke-linejoin="round" stroke-width="8"/>
    <path id="パス_629" data-name="パス 629" d="M20.724.264a58.293,58.293,0,0,0-5.39-8.4l-2.97,1.628A28.505,28.505,0,0,1,14.7-3.168a61.114,61.114,0,0,1-6.314.528,66.211,66.211,0,0,0,4.026-8.03,3.56,3.56,0,0,1,.33-.7L8.8-12.342A15.423,15.423,0,0,1,7.458-8.58a57.052,57.052,0,0,1-3.1,6.094H3.168a15.2,15.2,0,0,1-1.606-.066L2.09,1.21a11.705,11.705,0,0,1,1.232-.132,111.289,111.289,0,0,0,13-1.3c.418.858.572,1.188,1.122,2.354ZM6.666-18.414a8.587,8.587,0,0,1-1.122,2.64A16.3,16.3,0,0,1,.418-10.34a16.081,16.081,0,0,1,2.2,3.212,23.051,23.051,0,0,0,3.476-3.366A26.391,26.391,0,0,0,9.68-15.95a7.307,7.307,0,0,1,.594-1.1Zm5.28,1.342a3.25,3.25,0,0,1,.2.4,20.971,20.971,0,0,0,2.53,4.51A22.661,22.661,0,0,0,19.6-7.128a16.921,16.921,0,0,1,2.156-3.366,15.376,15.376,0,0,1-4.2-3.63,13.68,13.68,0,0,1-2.376-4.29Zm28.666,1.716,1.716-.88a17.85,17.85,0,0,0-1.98-2.288L37.84-17.248a11.112,11.112,0,0,1,1.672,1.892H37.488c-.022-1.144-.022-1.606-.022-1.8a8.027,8.027,0,0,1,.088-1.3h-3.63a24.236,24.236,0,0,1,.176,3.1H25.828a24.947,24.947,0,0,1-2.86-.132v3.366c.968-.088,1.826-.132,2.86-.132H34.21C34.5-7.48,35.266-4.092,36.586-1.606,37.708.528,39.16,1.8,40.436,1.8A2.242,2.242,0,0,0,42.306.572,11.936,11.936,0,0,0,43.56-3.96a12.439,12.439,0,0,1-2.728-1.628,11.683,11.683,0,0,1-.616,3.212A9.617,9.617,0,0,1,38.676-5.5,25.592,25.592,0,0,1,37.6-12.254h2.53a24.161,24.161,0,0,1,2.86.132v-3.344a12.483,12.483,0,0,1-2.134.11ZM27.038-7.194v4.576a30.787,30.787,0,0,1-4.114.4l.484,3.454c.44-.11.792-.154,1.518-.264,3.3-.484,5.412-.88,9.526-1.826V-3.982c-1.914.44-2.728.616-4.114.858v-4.07H31.2c.814,0,1.76.044,2.442.088v-3.168a22.993,22.993,0,0,1-2.464.11H26.2a23.626,23.626,0,0,1-2.508-.11v3.168c.682-.044,1.628-.088,2.42-.088ZM52.03-18.612a8.394,8.394,0,0,1-.946,2.64,17.31,17.31,0,0,1-5.852,6.71,10.915,10.915,0,0,1,3.124,2.64,20.639,20.639,0,0,0,4.994-5.522L59.2-12.21a15.454,15.454,0,0,1-3.674,6.248A19.272,19.272,0,0,1,48.18-1.474,10.169,10.169,0,0,1,50.82,1.87a22.719,22.719,0,0,0,8.1-5.676,23.26,23.26,0,0,0,4.554-8.712,5.4,5.4,0,0,1,.638-1.562l-1.826-1.8a3.675,3.675,0,0,1-1.628.242l-5.522.066c.154-.308.154-.308.44-.946q.066-.132.2-.462c.066-.132.11-.264.154-.33a3.235,3.235,0,0,1,.264-.55Zm30.448.374a16.143,16.143,0,0,1-4,4.026,31.876,31.876,0,0,1-11.682,5.72A11.813,11.813,0,0,1,68.9-4.95,37.447,37.447,0,0,0,76.1-8.206v6.072a29.891,29.891,0,0,1-.132,3.542h4.268A31.442,31.442,0,0,1,80.1-2.156v-8.47a36.876,36.876,0,0,0,5.082-4.422,7.872,7.872,0,0,1,.858-.814Zm19.1,1.694-7.018.11H93.324a20.328,20.328,0,0,1-2.31-.132l.11,3.894a28.141,28.141,0,0,1,3.5-.2l5.72-.11A19.892,19.892,0,0,1,88.792-2.046,11.639,11.639,0,0,1,91.256,1.43a24.43,24.43,0,0,0,8.1-6.05,36.191,36.191,0,0,1,6.314,6.27l3.08-3.278a54.337,54.337,0,0,0-7-5.962,24.327,24.327,0,0,0,3.014-5.478,6.034,6.034,0,0,1,.484-1.078l-.2-.462,1.43-.506a16.255,16.255,0,0,0-1.936-3.5l-2.178.7a16.282,16.282,0,0,1,.9,1.364Zm4.07-2.134a15.7,15.7,0,0,1,1.914,3.454l2.112-.748a15.47,15.47,0,0,0-1.958-3.388Z" transform="translate(2818 498)" fill="#1d4e90"/>
  </g>
</svg>
