<svg xmlns="http://www.w3.org/2000/svg" width="101.156" height="33.389" viewBox="0 0 101.156 33.389">
  <g id="グループ_1612" data-name="グループ 1612" transform="translate(-2808.635 -630.075)">
    <path id="パス_659" data-name="パス 659" d="M11.77-5.06A10.733,10.733,0,0,1,9.02-2.354c-.066-1.122-.2-2.354-.418-3.762l-1.914.308a29.228,29.228,0,0,1,.352,4.29c0,.154,0,.528-.022.946l.836-.2A14.42,14.42,0,0,1,9.306,1.562,11.87,11.87,0,0,0,13.2-2.464c-.022.374-.022.638-.022,1.3V.11A10.36,10.36,0,0,1,13.046,2h3.476A10.049,10.049,0,0,1,16.39.088v-1.3c0-.418,0-.55-.022-.88a3.994,3.994,0,0,1-.022-.44,11.079,11.079,0,0,0,4.026,4.07A14.675,14.675,0,0,1,21.758-2a10.953,10.953,0,0,1-4.18-3.058h.968a20.08,20.08,0,0,1,2.156.088,16.37,16.37,0,0,1-.088-2.112v-4.29a16.152,16.152,0,0,1,.088-2.112,16.77,16.77,0,0,1-1.848.066H16.39v-.77h2.926a18.812,18.812,0,0,1,2.156.088v-3.146a18.643,18.643,0,0,1-2.508.132H16.39A6.833,6.833,0,0,1,16.5-18.7H13.046a8.525,8.525,0,0,1,.132,1.584H11a18.338,18.338,0,0,1-2.53-.132v1.76l-1.848-.968a27.624,27.624,0,0,1-2,3.63,5.936,5.936,0,0,0-.484-.726,33.026,33.026,0,0,0,1.936-3.542,6.04,6.04,0,0,1,.44-.792l-2.838-1.1A13.364,13.364,0,0,1,2.42-15.818l-.506-.638L.44-13.75A26.048,26.048,0,0,1,2.882-10.3c-.242.33-.308.44-.528.7h-.77A4.854,4.854,0,0,1,.528-9.68L.792-6.556a15.354,15.354,0,0,1,2.838-.22v6.4A14.686,14.686,0,0,1,3.5,2.068H6.512A13.475,13.475,0,0,1,6.38-.374v-6.6C6.732-7,6.732-7,7.458-7.084c.044.4.044.4.11.814l1.584-.55c-.022.968-.044,1.32-.088,1.848A16.152,16.152,0,0,1,11-5.06Zm1.408-8.36H11.132c-1.012,0-1.628-.022-2.068-.066a17.452,17.452,0,0,1,.088,2.046V-9.2a22.414,22.414,0,0,0-.924-2.75l-1.562.55c.726-1.034.968-1.364,1.848-2.75.132-.022.814-.022,2.09-.044h2.574Zm.176,2.332v.836H11.99v-.836Zm2.838,0h1.5v.836h-1.5ZM13.354-8.25v.858H11.99V-8.25Zm2.838,0H17.71v.858H16.192ZM6.424-11.066c.22.616.264.748.44,1.3a15.362,15.362,0,0,1-1.54.088C5.852-10.34,5.962-10.472,6.424-11.066ZM1.144-6.2A26.57,26.57,0,0,1,.462-.2L2.574.968a40.2,40.2,0,0,0,.638-6.842Zm41.47-9.746a20.7,20.7,0,0,1,.088-2.376,15.3,15.3,0,0,1-2.112.088H35.86a25.166,25.166,0,0,1-2.728-.132v3.08c.616-.066.858-.066,1.628-.088l-1.342,1.3a14.154,14.154,0,0,1,2.6,1.98,17.206,17.206,0,0,1-2.926.726l.528,1.628L32.56-9.922a6.234,6.234,0,0,0,.088-1.188v-4.906c0-1.386.022-1.87.066-2.354a15.164,15.164,0,0,1-2.31.11h-4.6a23.076,23.076,0,0,1-2.662-.132v3.1a10.374,10.374,0,0,1,1.936-.11l-1.474,1.32a13.3,13.3,0,0,1,2.552,1.936,20.458,20.458,0,0,1-3.278.836l.968,3.014a7.469,7.469,0,0,1,1.122-.44c.858-.308,1.914-.7,2.772-1.056a8.144,8.144,0,0,1,.2,1.3c.77.022,1.144.022,1.606.022a9.606,9.606,0,0,0,1.3-.066,4.308,4.308,0,0,1-.418.66H27.5a22.316,22.316,0,0,1-2.42-.066c.044.7.066,1.122.066,2.6V-.88a21.529,21.529,0,0,1-.11,2.816H28.4V1.1h9.2v.836h3.388a20.907,20.907,0,0,1-.11-2.816V-5.39a17.834,17.834,0,0,1,.11-2.552,22.335,22.335,0,0,1-2.442.066H33.968c.286-.4.286-.4.44-.638.352-.132.462-.176.924-.352a21.61,21.61,0,0,0,2.134-.858,9.993,9.993,0,0,1,.2,1.254c.506,0,1.232.022,1.518.022,1.738,0,2.464-.132,2.9-.55.4-.352.528-.836.528-2.09Zm-14.08,2A14.112,14.112,0,0,0,26.488-15.4h3.124v3.7c0,.352-.066.4-.594.418L29-13.244c-1.1.462-1.5.638-2.156.858Zm9.68.044a14.444,14.444,0,0,0-2.09-1.474h3.388v3.7c0,.374-.066.418-.638.44v-2c-1.188.506-1.54.66-2.244.9ZM28.4-5.456H37.62V-4.6H28.4Zm0,3.146H37.62v.9H28.4Zm31.24-4.972c0-.748.022-1.232.066-1.694-.572.044-1.034.066-1.782.066H52.008c-.726,0-1.232-.022-1.76-.066.044.484.066,1.012.066,1.694V-2.2c0,.792-.044,1.5-.11,2.2h3.234V-1.32h4.708a11.914,11.914,0,0,1,.7,3.036c1.518.044,1.716.044,1.958.044,3.124,0,3.762-.528,3.762-3.1V-15.664a24.594,24.594,0,0,1,.088-2.486,19.361,19.361,0,0,1-2.222.088H57.662a18.824,18.824,0,0,1-2.244-.088c.044.616.066,1.232.066,2v4.18c0,1.034,0,1.43-.044,1.936.484-.022,1.144-.044,1.8-.044h4.048v8.184c0,.44-.088.506-.682.506-.308,0-.55,0-.924-.022-.022-.33-.044-.9-.044-1.54Zm-1.078-8.47h2.728v.836H58.564Zm0,2.662h2.728v.836H58.564ZM53.438-6.16h3.08v2h-3.08ZM48.73-10.1H52.6c.638,0,1.232.022,1.8.044a18.025,18.025,0,0,1-.044-1.914v-4.18c0-.836.022-1.342.066-2a17.9,17.9,0,0,1-2.244.088h-4.6a19.36,19.36,0,0,1-2.222-.088,24.738,24.738,0,0,1,.088,2.53V-1.056a22.783,22.783,0,0,1-.132,2.97h3.542a23.087,23.087,0,0,1-.132-2.948Zm0-5.654h2.6v.836h-2.6Zm0,2.662h2.6v.836h-2.6Zm22.4,9.526a4.935,4.935,0,0,1-.726-.88c.044-.638.066-.946.066-1.364s0-.462.022-.77l-2.728-.33c.022.264.044.462.044.616,0,.748-.088,1.914-.154,2.464A8.451,8.451,0,0,1,66.4-.264a10.516,10.516,0,0,1,2.31,2.222,10.387,10.387,0,0,0,1.232-3.212,7.2,7.2,0,0,0,3.938,2.508,36.627,36.627,0,0,0,7.5.44c.638,0,.638,0,3.454-.066,1.342-.022,2-.044,2-.044a12.784,12.784,0,0,1,.836-3.366c-.484.044-.814.088-1.012.11a11.719,11.719,0,0,1,1.034-1.364A9.008,9.008,0,0,1,84.9-4.466a14.572,14.572,0,0,1,1.694.066A19.931,19.931,0,0,1,86.5-6.468V-12.76c0-.748.022-1.254.066-1.738a12.623,12.623,0,0,1-1.76.066H83.358c.154-.33.33-.7.418-.9h1.342a20.361,20.361,0,0,1,2.156.11v-2.9a21.314,21.314,0,0,1-2.508.11H79.574c-1.078,0-1.76-.022-2.486-.088v2.86c.682-.066,1.43-.088,2.156-.088H80.63a8.807,8.807,0,0,1-.4.9H79.4a12.455,12.455,0,0,1-1.76-.066,14.2,14.2,0,0,1,.088,1.716V-6.05a12.449,12.449,0,0,1-.088,1.65,11.485,11.485,0,0,1,1.276-.066,7.714,7.714,0,0,1-2.9,1.716,10.6,10.6,0,0,1,1.188,1.3,14.862,14.862,0,0,1-3.036-.374V-3.388h.924a13.507,13.507,0,0,1,1.782.088V-6.2c-.594.044-1.034.066-1.782.066h-.924v-1.21H75.2a16,16,0,0,1,2,.066v-2.9a11.764,11.764,0,0,1-1.672.088H68.9a14.757,14.757,0,0,1-2.068-.088V-7.26A14.962,14.962,0,0,1,68.9-7.348h2.222Zm9.042-.9h3.278l-1.43,1.012A9.426,9.426,0,0,0,84.26-1.518c-1.562.066-3.19.11-4.664.11a9.522,9.522,0,0,0,2.2-2.068Zm.572-7.81h2.75v.7H80.74Zm0,2.442h2.75v.726H80.74Zm0,2.442h2.75v.726H80.74Zm-13.046-5.06a12.02,12.02,0,0,1-.088,1.826c.682-.044,1.166-.066,1.87-.066h5.236c.7,0,1.188.022,1.87.066a11.661,11.661,0,0,1-.066-1.8v-3.85a12.848,12.848,0,0,1,.066-1.848,13.059,13.059,0,0,1-1.914.066H69.476a16.977,16.977,0,0,1-1.87-.066,14.836,14.836,0,0,1,.088,1.848Zm3.1-3.432h2.64v.748H70.8Zm0,2.486h2.64v.748H70.8Z" transform="translate(2813 654.5)" fill="none" stroke="#fff" stroke-linecap="round" stroke-linejoin="round" stroke-width="8"/>
    <path id="パス_660" data-name="パス 660" d="M11.77-5.06A10.733,10.733,0,0,1,9.02-2.354c-.066-1.122-.2-2.354-.418-3.762l-1.914.308a29.228,29.228,0,0,1,.352,4.29c0,.154,0,.528-.022.946l.836-.2A14.42,14.42,0,0,1,9.306,1.562,11.87,11.87,0,0,0,13.2-2.464c-.022.374-.022.638-.022,1.3V.11A10.36,10.36,0,0,1,13.046,2h3.476A10.049,10.049,0,0,1,16.39.088v-1.3c0-.418,0-.55-.022-.88a3.994,3.994,0,0,1-.022-.44,11.079,11.079,0,0,0,4.026,4.07A14.675,14.675,0,0,1,21.758-2a10.953,10.953,0,0,1-4.18-3.058h.968a20.08,20.08,0,0,1,2.156.088,16.37,16.37,0,0,1-.088-2.112v-4.29a16.152,16.152,0,0,1,.088-2.112,16.77,16.77,0,0,1-1.848.066H16.39v-.77h2.926a18.812,18.812,0,0,1,2.156.088v-3.146a18.643,18.643,0,0,1-2.508.132H16.39A6.833,6.833,0,0,1,16.5-18.7H13.046a8.525,8.525,0,0,1,.132,1.584H11a18.338,18.338,0,0,1-2.53-.132v1.76l-1.848-.968a27.624,27.624,0,0,1-2,3.63,5.936,5.936,0,0,0-.484-.726,33.026,33.026,0,0,0,1.936-3.542,6.04,6.04,0,0,1,.44-.792l-2.838-1.1A13.364,13.364,0,0,1,2.42-15.818l-.506-.638L.44-13.75A26.048,26.048,0,0,1,2.882-10.3c-.242.33-.308.44-.528.7h-.77A4.854,4.854,0,0,1,.528-9.68L.792-6.556a15.354,15.354,0,0,1,2.838-.22v6.4A14.686,14.686,0,0,1,3.5,2.068H6.512A13.475,13.475,0,0,1,6.38-.374v-6.6C6.732-7,6.732-7,7.458-7.084c.044.4.044.4.11.814l1.584-.55c-.022.968-.044,1.32-.088,1.848A16.152,16.152,0,0,1,11-5.06Zm1.408-8.36H11.132c-1.012,0-1.628-.022-2.068-.066a17.452,17.452,0,0,1,.088,2.046V-9.2a22.414,22.414,0,0,0-.924-2.75l-1.562.55c.726-1.034.968-1.364,1.848-2.75.132-.022.814-.022,2.09-.044h2.574Zm.176,2.332v.836H11.99v-.836Zm2.838,0h1.5v.836h-1.5ZM13.354-8.25v.858H11.99V-8.25Zm2.838,0H17.71v.858H16.192ZM6.424-11.066c.22.616.264.748.44,1.3a15.362,15.362,0,0,1-1.54.088C5.852-10.34,5.962-10.472,6.424-11.066ZM1.144-6.2A26.57,26.57,0,0,1,.462-.2L2.574.968a40.2,40.2,0,0,0,.638-6.842Zm41.47-9.746a20.7,20.7,0,0,1,.088-2.376,15.3,15.3,0,0,1-2.112.088H35.86a25.166,25.166,0,0,1-2.728-.132v3.08c.616-.066.858-.066,1.628-.088l-1.342,1.3a14.154,14.154,0,0,1,2.6,1.98,17.206,17.206,0,0,1-2.926.726l.528,1.628L32.56-9.922a6.234,6.234,0,0,0,.088-1.188v-4.906c0-1.386.022-1.87.066-2.354a15.164,15.164,0,0,1-2.31.11h-4.6a23.076,23.076,0,0,1-2.662-.132v3.1a10.374,10.374,0,0,1,1.936-.11l-1.474,1.32a13.3,13.3,0,0,1,2.552,1.936,20.458,20.458,0,0,1-3.278.836l.968,3.014a7.469,7.469,0,0,1,1.122-.44c.858-.308,1.914-.7,2.772-1.056a8.144,8.144,0,0,1,.2,1.3c.77.022,1.144.022,1.606.022a9.606,9.606,0,0,0,1.3-.066,4.308,4.308,0,0,1-.418.66H27.5a22.316,22.316,0,0,1-2.42-.066c.044.7.066,1.122.066,2.6V-.88a21.529,21.529,0,0,1-.11,2.816H28.4V1.1h9.2v.836h3.388a20.907,20.907,0,0,1-.11-2.816V-5.39a17.834,17.834,0,0,1,.11-2.552,22.335,22.335,0,0,1-2.442.066H33.968c.286-.4.286-.4.44-.638.352-.132.462-.176.924-.352a21.61,21.61,0,0,0,2.134-.858,9.993,9.993,0,0,1,.2,1.254c.506,0,1.232.022,1.518.022,1.738,0,2.464-.132,2.9-.55.4-.352.528-.836.528-2.09Zm-14.08,2A14.112,14.112,0,0,0,26.488-15.4h3.124v3.7c0,.352-.066.4-.594.418L29-13.244c-1.1.462-1.5.638-2.156.858Zm9.68.044a14.444,14.444,0,0,0-2.09-1.474h3.388v3.7c0,.374-.066.418-.638.44v-2c-1.188.506-1.54.66-2.244.9ZM28.4-5.456H37.62V-4.6H28.4Zm0,3.146H37.62v.9H28.4Zm31.24-4.972c0-.748.022-1.232.066-1.694-.572.044-1.034.066-1.782.066H52.008c-.726,0-1.232-.022-1.76-.066.044.484.066,1.012.066,1.694V-2.2c0,.792-.044,1.5-.11,2.2h3.234V-1.32h4.708a11.914,11.914,0,0,1,.7,3.036c1.518.044,1.716.044,1.958.044,3.124,0,3.762-.528,3.762-3.1V-15.664a24.594,24.594,0,0,1,.088-2.486,19.361,19.361,0,0,1-2.222.088H57.662a18.824,18.824,0,0,1-2.244-.088c.044.616.066,1.232.066,2v4.18c0,1.034,0,1.43-.044,1.936.484-.022,1.144-.044,1.8-.044h4.048v8.184c0,.44-.088.506-.682.506-.308,0-.55,0-.924-.022-.022-.33-.044-.9-.044-1.54Zm-1.078-8.47h2.728v.836H58.564Zm0,2.662h2.728v.836H58.564ZM53.438-6.16h3.08v2h-3.08ZM48.73-10.1H52.6c.638,0,1.232.022,1.8.044a18.025,18.025,0,0,1-.044-1.914v-4.18c0-.836.022-1.342.066-2a17.9,17.9,0,0,1-2.244.088h-4.6a19.36,19.36,0,0,1-2.222-.088,24.738,24.738,0,0,1,.088,2.53V-1.056a22.783,22.783,0,0,1-.132,2.97h3.542a23.087,23.087,0,0,1-.132-2.948Zm0-5.654h2.6v.836h-2.6Zm0,2.662h2.6v.836h-2.6Zm22.4,9.526a4.935,4.935,0,0,1-.726-.88c.044-.638.066-.946.066-1.364s0-.462.022-.77l-2.728-.33c.022.264.044.462.044.616,0,.748-.088,1.914-.154,2.464A8.451,8.451,0,0,1,66.4-.264a10.516,10.516,0,0,1,2.31,2.222,10.387,10.387,0,0,0,1.232-3.212,7.2,7.2,0,0,0,3.938,2.508,36.627,36.627,0,0,0,7.5.44c.638,0,.638,0,3.454-.066,1.342-.022,2-.044,2-.044a12.784,12.784,0,0,1,.836-3.366c-.484.044-.814.088-1.012.11a11.719,11.719,0,0,1,1.034-1.364A9.008,9.008,0,0,1,84.9-4.466a14.572,14.572,0,0,1,1.694.066A19.931,19.931,0,0,1,86.5-6.468V-12.76c0-.748.022-1.254.066-1.738a12.623,12.623,0,0,1-1.76.066H83.358c.154-.33.33-.7.418-.9h1.342a20.361,20.361,0,0,1,2.156.11v-2.9a21.314,21.314,0,0,1-2.508.11H79.574c-1.078,0-1.76-.022-2.486-.088v2.86c.682-.066,1.43-.088,2.156-.088H80.63a8.807,8.807,0,0,1-.4.9H79.4a12.455,12.455,0,0,1-1.76-.066,14.2,14.2,0,0,1,.088,1.716V-6.05a12.449,12.449,0,0,1-.088,1.65,11.485,11.485,0,0,1,1.276-.066,7.714,7.714,0,0,1-2.9,1.716,10.6,10.6,0,0,1,1.188,1.3,14.862,14.862,0,0,1-3.036-.374V-3.388h.924a13.507,13.507,0,0,1,1.782.088V-6.2c-.594.044-1.034.066-1.782.066h-.924v-1.21H75.2a16,16,0,0,1,2,.066v-2.9a11.764,11.764,0,0,1-1.672.088H68.9a14.757,14.757,0,0,1-2.068-.088V-7.26A14.962,14.962,0,0,1,68.9-7.348h2.222Zm9.042-.9h3.278l-1.43,1.012A9.426,9.426,0,0,0,84.26-1.518c-1.562.066-3.19.11-4.664.11a9.522,9.522,0,0,0,2.2-2.068Zm.572-7.81h2.75v.7H80.74Zm0,2.442h2.75v.726H80.74Zm0,2.442h2.75v.726H80.74Zm-13.046-5.06a12.02,12.02,0,0,1-.088,1.826c.682-.044,1.166-.066,1.87-.066h5.236c.7,0,1.188.022,1.87.066a11.661,11.661,0,0,1-.066-1.8v-3.85a12.848,12.848,0,0,1,.066-1.848,13.059,13.059,0,0,1-1.914.066H69.476a16.977,16.977,0,0,1-1.87-.066,14.836,14.836,0,0,1,.088,1.848Zm3.1-3.432h2.64v.748H70.8Zm0,2.486h2.64v.748H70.8Z" transform="translate(2813 654)" fill="#1d4e90"/>
  </g>
</svg>
