<svg xmlns="http://www.w3.org/2000/svg" width="162.361" height="31.827" viewBox="0 0 162.361 31.827">
  <g id="グループ_1591" data-name="グループ 1591" transform="translate(-2813.911 -514.323)">
    <path id="パス_630" data-name="パス 630" d="M3.608-14.08A12.337,12.337,0,0,1,5.3-14.212c1.474-.066,2.684-.132,3.652-.22-.308,1.254-.638,2.376-1.034,3.674A8.324,8.324,0,0,0,3.564-9.57,6.057,6.057,0,0,0,.726-4.378,5.042,5.042,0,0,0,2.068-.77,4.065,4.065,0,0,0,4.928.484,3.934,3.934,0,0,0,8.294-1.628,28.337,28.337,0,0,0,10.56-7.062a16.28,16.28,0,0,1,3.872,1.254,8.294,8.294,0,0,1-1.914,2.794A10.8,10.8,0,0,1,9.284-.946a13.636,13.636,0,0,1,2.75,2.86,12.038,12.038,0,0,0,5.7-6.05A15.45,15.45,0,0,1,20.46-2.288L21.736-6.4a3.524,3.524,0,0,1-.748-.352c-.77-.418-.77-.418-2.288-1.188a38.181,38.181,0,0,0,.4-4.554A7.147,7.147,0,0,1,19.25-14.1l-3.828-.132a7.652,7.652,0,0,1,.088,1.254,21.429,21.429,0,0,1-.176,3.608,18.323,18.323,0,0,0-3.762-1.078c.352-1.188,1.254-3.982,1.452-4.466a3.83,3.83,0,0,1,.528-1.056L11.176-18a1.989,1.989,0,0,1-.9.264,44.4,44.4,0,0,1-4.554.22,12.692,12.692,0,0,1-2.266-.11ZM6.952-7.392c-.99,2.926-1.562,4.07-2.068,4.07-.418,0-.748-.506-.748-1.188a2.5,2.5,0,0,1,.616-1.672A3.143,3.143,0,0,1,6.952-7.392Zm22.088-11a62.74,62.74,0,0,1-2.354,7.348C25.344-7.172,24.574-4.972,24.4-4.422A31.8,31.8,0,0,1,22.638.286l4.07,1.21a26.905,26.905,0,0,1,1.716-5.06c.858-1.848,1.914-2.86,2.926-2.86.682,0,.924.352.924,1.43v.374c-.022.946-.022,1.364-.022,1.562A4.27,4.27,0,0,0,33.308.22,4.214,4.214,0,0,0,36.52,1.364,5.969,5.969,0,0,0,41.426-.99a11.427,11.427,0,0,0,1.98-5.082,11.5,11.5,0,0,1-3.5-2.2,12.15,12.15,0,0,1-.9,4.07C38.478-2.992,37.84-2.42,36.96-2.42c-.792,0-1.056-.484-1.056-2.024-.044-2.728-.044-2.9-.264-3.7a2.876,2.876,0,0,0-2.926-2.112,4.542,4.542,0,0,0-2.728.968c2.552-6.578,2.882-7.348,3.344-8.206Zm21.054-.132a14.692,14.692,0,0,1-.33,2.618,7.56,7.56,0,0,0-.2.924c-.44.022-.55.022-.792.022a17.985,17.985,0,0,1-3.212-.22v3.52h.858c.506.022.506.022,1.012.022h1.232a29.9,29.9,0,0,1-4.07,8.316L48.18-1.364a8.893,8.893,0,0,1,.418-.858c.858-1.716,1.056-2.112,1.518-3.124a45.231,45.231,0,0,0,2.4-6.38c.55-.044,1.76-.154,2.354-.22,1.1-.132,1.1-.132,1.628-.176l-.066-3.564a16.933,16.933,0,0,1-3.058.528c.11-.506.154-.7.264-1.232a9.615,9.615,0,0,1,.418-1.76ZM65.34-13.156a36.706,36.706,0,0,0-6.622-2.97L56.892-13.09a31.127,31.127,0,0,1,6.842,3.168Zm-.2,10.076c-.66-.528-1.012-.814-1.078-.858A16.112,16.112,0,0,0,60.676-5.9,19.591,19.591,0,0,1,60.5-8.448a10.223,10.223,0,0,1,.242-2.486l-3.63-.154c-.088.99-.132,1.694-.132,2.6,0,.506.022.924.088,1.76a9,9,0,0,0-1.54-.132c-3.058,0-5.192,1.782-5.192,4.334A3.842,3.842,0,0,0,51.436.2,5.775,5.775,0,0,0,55.594,1.65,5.972,5.972,0,0,0,59.752.286,3.253,3.253,0,0,0,60.676-2,11.782,11.782,0,0,1,63.514.4Zm-8.008-.374a2.239,2.239,0,0,1,.044.484c0,.924-.572,1.408-1.672,1.408-.946,0-1.562-.418-1.562-1.056,0-.682.66-1.122,1.694-1.122A3.824,3.824,0,0,1,57.134-3.454ZM79.288-13.618a3.687,3.687,0,0,1,1.848.77,5.177,5.177,0,0,1,1.936,4.334,5.456,5.456,0,0,1-2.64,5.1,11.442,11.442,0,0,1-4.62,1.122,10.809,10.809,0,0,1,1.87,3.608C80.762.836,82.5.132,84-1.21a9.467,9.467,0,0,0,2.926-7.106,8.748,8.748,0,0,0-2.156-6.116,9.811,9.811,0,0,0-7.172-2.706A10.519,10.519,0,0,0,69.63-13.9a9.78,9.78,0,0,0-2.53,6.71c0,4.026,2.068,6.842,5.016,6.842,2,0,3.476-1.232,4.752-4.048A30.819,30.819,0,0,0,79.288-13.618Zm-3.806.044a28.524,28.524,0,0,1-1.65,6.71c-.66,1.672-1.232,2.442-1.782,2.442-.77,0-1.364-1.232-1.364-2.794a7.118,7.118,0,0,1,2.4-5.236A4.4,4.4,0,0,1,75.482-13.574ZM96.03-18.612a8.394,8.394,0,0,1-.946,2.64,17.31,17.31,0,0,1-5.852,6.71,10.915,10.915,0,0,1,3.124,2.64,20.639,20.639,0,0,0,4.994-5.522l5.852-.066a15.454,15.454,0,0,1-3.674,6.248A19.272,19.272,0,0,1,92.18-1.474,10.169,10.169,0,0,1,94.82,1.87a22.719,22.719,0,0,0,8.1-5.676,23.26,23.26,0,0,0,4.554-8.712,5.4,5.4,0,0,1,.638-1.562l-1.826-1.8a3.675,3.675,0,0,1-1.628.242l-5.522.066c.154-.308.154-.308.44-.946q.066-.132.2-.462c.066-.132.11-.264.154-.33a3.234,3.234,0,0,1,.264-.55Zm30.448.374a16.143,16.143,0,0,1-4,4.026,31.876,31.876,0,0,1-11.682,5.72A11.813,11.813,0,0,1,112.9-4.95,37.447,37.447,0,0,0,120.1-8.206v6.072a29.891,29.891,0,0,1-.132,3.542h4.268a31.442,31.442,0,0,1-.132-3.564v-8.47a36.877,36.877,0,0,0,5.082-4.422,7.872,7.872,0,0,1,.858-.814Zm19.1,1.694-7.018.11h-1.232a20.328,20.328,0,0,1-2.31-.132l.11,3.894a28.141,28.141,0,0,1,3.5-.2l5.72-.11a19.892,19.892,0,0,1-11.55,10.934,11.638,11.638,0,0,1,2.464,3.476,24.43,24.43,0,0,0,8.1-6.05,36.191,36.191,0,0,1,6.314,6.27l3.08-3.278a54.336,54.336,0,0,0-7-5.962,24.327,24.327,0,0,0,3.014-5.478,6.033,6.033,0,0,1,.484-1.078l-.2-.462,1.43-.506a16.256,16.256,0,0,0-1.936-3.5l-2.178.7a16.282,16.282,0,0,1,.9,1.364Zm4.07-2.134a15.7,15.7,0,0,1,1.914,3.454l2.112-.748a15.47,15.47,0,0,0-1.958-3.388Z" transform="translate(2817.185 538.36)" fill="none" stroke="#fff" stroke-linecap="round" stroke-linejoin="round" stroke-width="8"/>
    <path id="パス_631" data-name="パス 631" d="M3.608-14.08A12.337,12.337,0,0,1,5.3-14.212c1.474-.066,2.684-.132,3.652-.22-.308,1.254-.638,2.376-1.034,3.674A8.324,8.324,0,0,0,3.564-9.57,6.057,6.057,0,0,0,.726-4.378,5.042,5.042,0,0,0,2.068-.77,4.065,4.065,0,0,0,4.928.484,3.934,3.934,0,0,0,8.294-1.628,28.337,28.337,0,0,0,10.56-7.062a16.28,16.28,0,0,1,3.872,1.254,8.294,8.294,0,0,1-1.914,2.794A10.8,10.8,0,0,1,9.284-.946a13.636,13.636,0,0,1,2.75,2.86,12.038,12.038,0,0,0,5.7-6.05A15.45,15.45,0,0,1,20.46-2.288L21.736-6.4a3.524,3.524,0,0,1-.748-.352c-.77-.418-.77-.418-2.288-1.188a38.181,38.181,0,0,0,.4-4.554A7.147,7.147,0,0,1,19.25-14.1l-3.828-.132a7.652,7.652,0,0,1,.088,1.254,21.429,21.429,0,0,1-.176,3.608,18.323,18.323,0,0,0-3.762-1.078c.352-1.188,1.254-3.982,1.452-4.466a3.83,3.83,0,0,1,.528-1.056L11.176-18a1.989,1.989,0,0,1-.9.264,44.4,44.4,0,0,1-4.554.22,12.692,12.692,0,0,1-2.266-.11ZM6.952-7.392c-.99,2.926-1.562,4.07-2.068,4.07-.418,0-.748-.506-.748-1.188a2.5,2.5,0,0,1,.616-1.672A3.143,3.143,0,0,1,6.952-7.392Zm22.088-11a62.74,62.74,0,0,1-2.354,7.348C25.344-7.172,24.574-4.972,24.4-4.422A31.8,31.8,0,0,1,22.638.286l4.07,1.21a26.905,26.905,0,0,1,1.716-5.06c.858-1.848,1.914-2.86,2.926-2.86.682,0,.924.352.924,1.43v.374c-.022.946-.022,1.364-.022,1.562A4.27,4.27,0,0,0,33.308.22,4.214,4.214,0,0,0,36.52,1.364,5.969,5.969,0,0,0,41.426-.99a11.427,11.427,0,0,0,1.98-5.082,11.5,11.5,0,0,1-3.5-2.2,12.15,12.15,0,0,1-.9,4.07C38.478-2.992,37.84-2.42,36.96-2.42c-.792,0-1.056-.484-1.056-2.024-.044-2.728-.044-2.9-.264-3.7a2.876,2.876,0,0,0-2.926-2.112,4.542,4.542,0,0,0-2.728.968c2.552-6.578,2.882-7.348,3.344-8.206Zm21.054-.132a14.692,14.692,0,0,1-.33,2.618,7.56,7.56,0,0,0-.2.924c-.44.022-.55.022-.792.022a17.985,17.985,0,0,1-3.212-.22v3.52h.858c.506.022.506.022,1.012.022h1.232a29.9,29.9,0,0,1-4.07,8.316L48.18-1.364a8.893,8.893,0,0,1,.418-.858c.858-1.716,1.056-2.112,1.518-3.124a45.231,45.231,0,0,0,2.4-6.38c.55-.044,1.76-.154,2.354-.22,1.1-.132,1.1-.132,1.628-.176l-.066-3.564a16.933,16.933,0,0,1-3.058.528c.11-.506.154-.7.264-1.232a9.615,9.615,0,0,1,.418-1.76ZM65.34-13.156a36.706,36.706,0,0,0-6.622-2.97L56.892-13.09a31.127,31.127,0,0,1,6.842,3.168Zm-.2,10.076c-.66-.528-1.012-.814-1.078-.858A16.112,16.112,0,0,0,60.676-5.9,19.591,19.591,0,0,1,60.5-8.448a10.223,10.223,0,0,1,.242-2.486l-3.63-.154c-.088.99-.132,1.694-.132,2.6,0,.506.022.924.088,1.76a9,9,0,0,0-1.54-.132c-3.058,0-5.192,1.782-5.192,4.334A3.842,3.842,0,0,0,51.436.2,5.775,5.775,0,0,0,55.594,1.65,5.972,5.972,0,0,0,59.752.286,3.253,3.253,0,0,0,60.676-2,11.782,11.782,0,0,1,63.514.4Zm-8.008-.374a2.239,2.239,0,0,1,.044.484c0,.924-.572,1.408-1.672,1.408-.946,0-1.562-.418-1.562-1.056,0-.682.66-1.122,1.694-1.122A3.824,3.824,0,0,1,57.134-3.454ZM79.288-13.618a3.687,3.687,0,0,1,1.848.77,5.177,5.177,0,0,1,1.936,4.334,5.456,5.456,0,0,1-2.64,5.1,11.442,11.442,0,0,1-4.62,1.122,10.809,10.809,0,0,1,1.87,3.608C80.762.836,82.5.132,84-1.21a9.467,9.467,0,0,0,2.926-7.106,8.748,8.748,0,0,0-2.156-6.116,9.811,9.811,0,0,0-7.172-2.706A10.519,10.519,0,0,0,69.63-13.9a9.78,9.78,0,0,0-2.53,6.71c0,4.026,2.068,6.842,5.016,6.842,2,0,3.476-1.232,4.752-4.048A30.819,30.819,0,0,0,79.288-13.618Zm-3.806.044a28.524,28.524,0,0,1-1.65,6.71c-.66,1.672-1.232,2.442-1.782,2.442-.77,0-1.364-1.232-1.364-2.794a7.118,7.118,0,0,1,2.4-5.236A4.4,4.4,0,0,1,75.482-13.574ZM96.03-18.612a8.394,8.394,0,0,1-.946,2.64,17.31,17.31,0,0,1-5.852,6.71,10.915,10.915,0,0,1,3.124,2.64,20.639,20.639,0,0,0,4.994-5.522l5.852-.066a15.454,15.454,0,0,1-3.674,6.248A19.272,19.272,0,0,1,92.18-1.474,10.169,10.169,0,0,1,94.82,1.87a22.719,22.719,0,0,0,8.1-5.676,23.26,23.26,0,0,0,4.554-8.712,5.4,5.4,0,0,1,.638-1.562l-1.826-1.8a3.675,3.675,0,0,1-1.628.242l-5.522.066c.154-.308.154-.308.44-.946q.066-.132.2-.462c.066-.132.11-.264.154-.33a3.234,3.234,0,0,1,.264-.55Zm30.448.374a16.143,16.143,0,0,1-4,4.026,31.876,31.876,0,0,1-11.682,5.72A11.813,11.813,0,0,1,112.9-4.95,37.447,37.447,0,0,0,120.1-8.206v6.072a29.891,29.891,0,0,1-.132,3.542h4.268a31.442,31.442,0,0,1-.132-3.564v-8.47a36.877,36.877,0,0,0,5.082-4.422,7.872,7.872,0,0,1,.858-.814Zm19.1,1.694-7.018.11h-1.232a20.328,20.328,0,0,1-2.31-.132l.11,3.894a28.141,28.141,0,0,1,3.5-.2l5.72-.11a19.892,19.892,0,0,1-11.55,10.934,11.638,11.638,0,0,1,2.464,3.476,24.43,24.43,0,0,0,8.1-6.05,36.191,36.191,0,0,1,6.314,6.27l3.08-3.278a54.336,54.336,0,0,0-7-5.962,24.327,24.327,0,0,0,3.014-5.478,6.033,6.033,0,0,1,.484-1.078l-.2-.462,1.43-.506a16.256,16.256,0,0,0-1.936-3.5l-2.178.7a16.282,16.282,0,0,1,.9,1.364Zm4.07-2.134a15.7,15.7,0,0,1,1.914,3.454l2.112-.748a15.47,15.47,0,0,0-1.958-3.388Z" transform="translate(2817.185 538.637)" fill="#1d4e90"/>
  </g>
</svg>
