<svg xmlns="http://www.w3.org/2000/svg" width="30" height="31.993" viewBox="0 0 30 31.993">
  <g id="Group_623" data-name="Group 623" transform="translate(-1157 -29)">
    <circle id="Ellipse_14" data-name="Ellipse 14" cx="15" cy="15" r="15" transform="translate(1157 29)" fill="#72777c"/>
    <path id="user-large-solid" d="M10.16,11.43A5.715,5.715,0,1,0,4.445,5.715,5.715,5.715,0,0,0,10.16,11.43Zm3.774,1.27a16.784,16.784,0,0,1-3.774.5,17.3,17.3,0,0,1-3.81-.5C2.843,12.7-3,21.543-3,25.05a1.263,1.263,0,0,0,1.234,1.27H22.05a1.24,1.24,0,0,0,1.234-1.27C23.32,21.542,17.479,12.7,13.935,12.7Z" transform="translate(1162.023 34.672)" fill="#fff"/>
  </g>
</svg>
