<svg xmlns="http://www.w3.org/2000/svg" width="14.022" height="7.79" viewBox="0 0 14.022 7.79">
  <path id="Path_561" data-name="Path 561" d="M0,.987a.941.941,0,0,0,.079.378.974.974,0,0,0,.228.32L5.255,7.011.308,12.338a.944.944,0,0,0,0,1.395,1.083,1.083,0,0,0,.742.29,1.083,1.083,0,0,0,.742-.29l5.69-6.025a.944.944,0,0,0,0-1.395L1.792.289a1.068,1.068,0,0,0-.537-.27A1.11,1.11,0,0,0,.649.075,1.038,1.038,0,0,0,.178.438.948.948,0,0,0,0,.987" transform="translate(14.022) rotate(90)" fill="#72777c"/>
</svg>
