<svg xmlns="http://www.w3.org/2000/svg" width="26.251" height="30" viewBox="903.088 30.48 26.251 30"><path d="M918.088 32.355v1.125c4.278.869 7.5 4.652 7.5 9.187v1.102c0 2.76 1.014 5.414 2.842 7.476l.434.487c.492.556.615 1.342.31 2.015a1.878 1.878 0 0 1-1.71 1.108h-22.5a1.875 1.875 0 0 1-1.402-3.123l.434-.487a11.254 11.254 0 0 0 2.842-7.476v-1.102a9.329 9.329 0 0 1 7.5-9.187v-1.125a1.874 1.874 0 1 1 3.75 0Zm-1.875 28.125a3.751 3.751 0 0 1-2.654-1.096 3.845 3.845 0 0 1-1.096-2.654h7.5c0 .943-.392 1.951-1.095 2.654a3.845 3.845 0 0 1-2.655 1.096Z" fill="#72777c" fill-rule="evenodd" data-name="bell-solid"/></svg>