<svg xmlns="http://www.w3.org/2000/svg" width="16.058" height="18.353" viewBox="153.971 11.324 16.058 18.353"><path d="M159.706 12.47v1.148h4.588V12.47a1.146 1.146 0 1 1 2.294 0v1.147h1.72c.95 0 1.721.77 1.721 1.72v1.72h-16.058v-1.72c0-.95.77-1.72 1.72-1.72h1.72V12.47a1.146 1.146 0 1 1 2.295 0Zm-5.735 5.736h16.058v9.75c0 .95-.77 1.72-1.72 1.72H155.69c-.95 0-1.72-.77-1.72-1.72v-9.75Zm2.294 4.015c0 .315.256.573.573.573h1.147a.575.575 0 0 0 .574-.573v-1.147a.575.575 0 0 0-.574-.574h-1.147a.574.574 0 0 0-.573.574v1.147Zm4.588 0c0 .315.258.573.573.573h1.147a.575.575 0 0 0 .574-.573v-1.147a.575.575 0 0 0-.574-.574h-1.147a.575.575 0 0 0-.573.574v1.147Zm5.162-1.721a.575.575 0 0 0-.574.574v1.147c0 .315.258.573.574.573h1.147a.575.575 0 0 0 .573-.573v-1.147a.575.575 0 0 0-.573-.574h-1.147Zm-9.75 6.309c0 .315.256.573.573.573h1.147a.575.575 0 0 0 .574-.573v-1.147a.575.575 0 0 0-.574-.574h-1.147a.574.574 0 0 0-.573.574v1.147Zm5.161-1.72a.575.575 0 0 0-.573.573v1.147c0 .315.258.573.573.573h1.147a.575.575 0 0 0 .574-.573v-1.147a.575.575 0 0 0-.574-.574h-1.147Zm4.015 1.72c0 .315.258.573.574.573h1.147a.575.575 0 0 0 .573-.573v-1.147a.575.575 0 0 0-.573-.574h-1.147a.575.575 0 0 0-.574.574v1.147Z" fill="#003a16" fill-rule="evenodd" data-name="calendar-days-solid"/></svg>