<?xml version="1.0" standalone="no"?>
<!DOCTYPE svg PUBLIC "-//W3C//DTD SVG 20010904//EN"
 "http://www.w3.org/TR/2001/REC-SVG-20010904/DTD/svg10.dtd">
<svg version="1.0" xmlns="http://www.w3.org/2000/svg"
 width="10.000000pt" height="10.000000pt" viewBox="0 0 10.000000 10.000000"
 preserveAspectRatio="xMidYMid meet">
<metadata>
Created by potrace 1.16, written by Peter Selinger 2001-2019
</metadata>
<g transform="translate(0.000000,10.000000) scale(0.004444,-0.004444)"
fill="#000000" stroke="none">
<path d="M574 2236 c-61 -27 -64 -38 -64 -272 0 -184 2 -213 16 -218 20 -8
238 -8 258 0 14 5 16 34 16 218 0 235 -3 246 -66 272 -42 18 -119 17 -160 0z"/>
<path d="M1514 2236 c-61 -27 -64 -38 -64 -272 0 -184 2 -213 16 -218 20 -8
238 -8 258 0 14 5 16 34 16 218 0 235 -3 246 -66 272 -42 18 -119 17 -160 0z"/>
<path d="M206 2035 c-56 -20 -107 -65 -136 -121 l-25 -48 0 -831 0 -830 23
-47 c13 -26 41 -63 64 -83 82 -75 13 -70 993 -70 l880 0 47 23 c26 13 63 41
83 64 74 82 70 23 73 913 2 564 0 815 -8 852 -14 66 -57 124 -117 160 -41 24
-60 28 -145 31 l-98 4 0 -151 c0 -170 -8 -198 -63 -231 -28 -17 -51 -20 -182
-20 -131 0 -154 3 -182 20 -55 33 -63 61 -63 230 l0 150 -225 0 -225 0 0 -152
c0 -134 -2 -157 -20 -185 -33 -55 -61 -63 -227 -63 -129 0 -152 3 -180 20 -55
33 -63 61 -63 230 l0 150 -82 0 c-46 -1 -100 -7 -122 -15z m1794 -1174 c0
-590 0 -599 -21 -625 l-20 -26 -832 0 -831 0 -23 22 -23 21 0 604 0 603 875 0
875 0 0 -599z"/>
<path d="M490 1110 l0 -130 130 0 130 0 0 130 0 130 -130 0 -130 0 0 -130z"/>
<path d="M997 1234 c-4 -4 -7 -63 -7 -131 l0 -123 135 0 136 0 -3 128 -3 127
-126 3 c-69 1 -128 -1 -132 -4z"/>
<path d="M1500 1110 l0 -130 130 0 130 0 0 130 0 130 -130 0 -130 0 0 -130z"/>
<path d="M490 630 l0 -130 130 0 130 0 0 130 0 130 -130 0 -130 0 0 -130z"/>
<path d="M990 630 l0 -130 135 0 135 0 0 130 0 130 -135 0 -135 0 0 -130z"/>
<path d="M1500 630 l0 -130 130 0 130 0 0 130 0 130 -130 0 -130 0 0 -130z"/>
</g>
</svg>
