<svg width="96" height="96" xmlns="http://www.w3.org/2000/svg" xmlns:xlink="http://www.w3.org/1999/xlink" xml:space="preserve" overflow="hidden"><defs><clipPath id="clip0"><rect x="359" y="155" width="96" height="96"/></clipPath></defs><g clip-path="url(#clip0)" transform="translate(-359 -155)"><path d="M388 181C389.7 181 391 179.7 391 178L391 172C391 170.3 389.7 169 388 169 386.3 169 385 170.3 385 172L385 178C385 179.7 386.3 181 388 181Z" fill="#003A16"/><path d="M379 223 395 223 395 231 379 231 379 223ZM379 211 395 211 395 219 379 219 379 211ZM379 199 395 199 395 207 379 207 379 199ZM415 199 415 207 399 207 399 199 415 199ZM435 199 435 207 419 207 419 199 435 199ZM435 219 419 219 419 211 435 211 435 219ZM435 231 419 231 419 223 435 223 435 231ZM399 219 399 211 415 211 415 219 399 219ZM399 231 399 223 415 223 415 231 399 231ZM373 237 441 237 441 193 373 193 373 237Z" fill="#003A16"/><path d="M426 181C427.7 181 429 179.7 429 178L429 172C429 170.3 427.7 169 426 169 424.3 169 423 170.3 423 172L423 178C423 179.7 424.3 181 426 181Z" fill="#003A16"/><path d="M433 175 433 178C433 181.9 429.9 185 426 185 422.1 185 419 181.9 419 178L419 175 395 175 395 178C395 181.9 391.9 185 388 185 384.1 185 381 181.9 381 178L381 175 373 175 373 189 441 189 441 175 433 175Z" fill="#003A16"/></g></svg>