<svg xmlns="http://www.w3.org/2000/svg" xmlns:xlink="http://www.w3.org/1999/xlink" width="71.5" height="71.5" viewBox="0 0 71.5 71.5">
  <defs>
    <clipPath id="clip-path">
      <circle id="AdobeStock_383258331_Preview" cx="35.75" cy="35.75" r="35.75" transform="translate(3208.5 -278)" fill="#fff" stroke="#fff" stroke-width="2"/>
    </clipPath>
  </defs>
  <g id="グループ_14236" data-name="グループ 14236" transform="translate(-3305.5 278)">
    <g id="AdobeStock_383258331_Preview-2" data-name="AdobeStock_383258331_Preview" transform="translate(3305.5 -278)" fill="#c9dbf5">
      <path d="M 35.75 70.5 C 31.05834007263184 70.5 26.50754928588867 69.58135986328125 22.22403907775879 67.76957702636719 C 18.08614921569824 66.0194091796875 14.3697395324707 63.5136604309082 11.17803955078125 60.32196044921875 C 7.986340045928955 57.1302604675293 5.480589866638184 53.41384887695312 3.730420112609863 49.27595901489258 C 1.91864001750946 44.99245071411133 1 40.4416618347168 1 35.75 C 1 31.05834007263184 1.91864001750946 26.50754928588867 3.730420112609863 22.22403907775879 C 5.480589866638184 18.08614921569824 7.986340045928955 14.3697395324707 11.17803955078125 11.17803955078125 C 14.3697395324707 7.986340045928955 18.08614921569824 5.480589866638184 22.22403907775879 3.730420112609863 C 26.50754928588867 1.91864001750946 31.05834007263184 1 35.75 1 C 40.4416618347168 1 44.99245071411133 1.91864001750946 49.27595901489258 3.730420112609863 C 53.41384887695312 5.480589866638184 57.1302604675293 7.986340045928955 60.32196044921875 11.17803955078125 C 63.5136604309082 14.3697395324707 66.0194091796875 18.08614921569824 67.76957702636719 22.22403907775879 C 69.58135986328125 26.50754928588867 70.5 31.05834007263184 70.5 35.75 C 70.5 40.4416618347168 69.58135986328125 44.99245071411133 67.76957702636719 49.27595901489258 C 66.0194091796875 53.41384887695312 63.5136604309082 57.1302604675293 60.32196044921875 60.32196044921875 C 57.1302604675293 63.5136604309082 53.41384887695312 66.0194091796875 49.27595901489258 67.76957702636719 C 44.99245071411133 69.58135986328125 40.4416618347168 70.5 35.75 70.5 Z" stroke="none"/>
      <path d="M 35.75 2 C 31.19290161132812 2 26.77316665649414 2.892066955566406 22.61359024047852 4.651420593261719 C 18.59489822387695 6.351181030273438 14.98533248901367 8.784954071044922 11.8851432800293 11.8851432800293 C 8.784954071044922 14.98533248901367 6.351181030273438 18.59489822387695 4.651420593261719 22.61359024047852 C 2.892066955566406 26.77316665649414 2 31.19290161132812 2 35.75 C 2 40.30709838867188 2.892066955566406 44.72683334350586 4.651420593261719 48.88641357421875 C 6.351181030273438 52.90509796142578 8.784954071044922 56.51466751098633 11.8851432800293 59.6148567199707 C 14.98533248901367 62.71504211425781 18.59489822387695 65.14881896972656 22.61359024047852 66.84857940673828 C 26.77316665649414 68.60793304443359 31.19290161132812 69.5 35.75 69.5 C 40.30709838867188 69.5 44.72683334350586 68.60793304443359 48.88641357421875 66.84857940673828 C 52.90509796142578 65.14881896972656 56.51466751098633 62.71504211425781 59.6148567199707 59.6148567199707 C 62.71504211425781 56.51466751098633 65.14881896972656 52.90509796142578 66.84857940673828 48.88641357421875 C 68.60793304443359 44.72683334350586 69.5 40.30709838867188 69.5 35.75 C 69.5 31.19290161132812 68.60793304443359 26.77316665649414 66.84857940673828 22.61359024047852 C 65.14881896972656 18.59489822387695 62.71504211425781 14.98533248901367 59.6148567199707 11.8851432800293 C 56.51466751098633 8.784954071044922 52.90509796142578 6.351181030273438 48.88641357421875 4.651420593261719 C 44.72683334350586 2.892066955566406 40.30709838867188 2 35.75 2 M 35.75 0 C 55.49417877197266 0 71.5 16.00582122802734 71.5 35.75 C 71.5 55.49417877197266 55.49417877197266 71.5 35.75 71.5 C 16.00582122802734 71.5 0 55.49417877197266 0 35.75 C 0 16.00582122802734 16.00582122802734 0 35.75 0 Z" stroke="none" fill="#fff"/>
    </g>
    <g id="マスクグループ_80" data-name="マスクグループ 80" transform="translate(97)" clip-path="url(#clip-path)">
      <g id="user" transform="translate(3182.819 -270.331)">
        <g id="グループ_14233" data-name="グループ 14233" transform="translate(45.034)">
          <g id="グループ_14232" data-name="グループ 14232" transform="translate(0)">
            <path id="パス_6480" data-name="パス 6480" d="M126.989,0a16.4,16.4,0,1,0,16.4,16.4A16.39,16.39,0,0,0,126.989,0Z" transform="translate(-110.592)" fill="#fff"/>
          </g>
        </g>
        <g id="グループ_14235" data-name="グループ 14235" transform="translate(31.744 34.692)">
          <g id="グループ_14234" data-name="グループ 14234" transform="translate(0)">
            <path id="パス_6481" data-name="パス 6481" d="M67.817,205.824H55.045a23.314,23.314,0,0,0-23.3,23.3v9.493a2.543,2.543,0,0,0,2.589,2.589h54.2a2.543,2.543,0,0,0,2.589-2.589v-9.493A23.314,23.314,0,0,0,67.817,205.824Z" transform="translate(-31.744 -205.824)" fill="#fff"/>
          </g>
        </g>
      </g>
    </g>
  </g>
</svg>
