<svg xmlns="http://www.w3.org/2000/svg" width="20" height="20" viewBox="150 10 20 20"><g data-name="Free Clock icon part 2無料の時計のアイコン 2"><path d="M160.509 14.712c-.6 0-1.087.487-1.087 1.087v3.923l-3.471 3.47a1.087 1.087 0 1 0 1.537 1.538l4.108-4.107v-4.824c0-.6-.486-1.087-1.087-1.087Z" fill="#003a16" fill-rule="evenodd" data-name="Path 575"/><path d="M160 10c-5.514 0-10 4.486-10 10s4.486 10 10 10 10-4.486 10-10-4.486-10-10-10Zm0 17.619c-4.201 0-7.619-3.418-7.619-7.619s3.418-7.619 7.619-7.619 7.619 3.418 7.619 7.619-3.418 7.619-7.619 7.619Z" fill="#003a16" fill-rule="evenodd" data-name="Path 574"/></g></svg>