<svg xmlns="http://www.w3.org/2000/svg" width="25" height="25" viewBox="0 0 25 25"><path d="M12.176,55.274H1.576A1.577,1.577,0,0,1,0,53.7V44.244a1.577,1.577,0,0,1,1.576-1.576h10.6a1.577,1.577,0,0,1,1.576,1.576V53.7A1.577,1.577,0,0,1,12.176,55.274ZM1.576,43.527a.717.717,0,0,0-.716.716V53.7a.717.717,0,0,0,.716.716h10.6a.717.717,0,0,0,.716-.716V44.244a.717.717,0,0,0-.716-.716Zm0,0" transform="translate(0 -41.522)" fill="#ddd"/><path d="M13.322,171.527H.43a.43.43,0,1,1,0-.859H13.322a.43.43,0,1,1,0,.859Zm0,0" transform="translate(0 -166.084)" fill="#ddd"/><path d="M107.1,3.438a.43.43,0,0,1-.43-.43V.43a.43.43,0,1,1,.859,0V3.008A.43.43,0,0,1,107.1,3.438Zm0,0" transform="translate(-103.803)" fill="#ddd"/><path d="M373.762,3.438a.43.43,0,0,1-.43-.43V.43a.43.43,0,0,1,.859,0V3.008A.43.43,0,0,1,373.762,3.438Zm0,0" transform="translate(-363.305)" fill="#ddd"/></svg>
