<svg xmlns="http://www.w3.org/2000/svg" xmlns:xlink="http://www.w3.org/1999/xlink" width="30" height="30" viewBox="0 0 30 30">
  <defs>
    <clipPath id="clip-path">
      <rect id="長方形_2846" data-name="長方形 2846" width="30" height="30" transform="translate(2436 146)" fill="#e2d9d9"/>
    </clipPath>
  </defs>
  <g id="マスクグループ_77" data-name="マスクグループ 77" transform="translate(-2436 -146)" clip-path="url(#clip-path)">
    <g id="email_2_" data-name="email (2)" transform="translate(2439.531 88.144)">
      <path id="パス_6444" data-name="パス 6444" d="M13.386,177.777a3.45,3.45,0,0,1-3.834,0l-9.4-6.266c-.052-.035-.1-.071-.153-.108V181.67a2.111,2.111,0,0,0,2.112,2.112H20.827a2.111,2.111,0,0,0,2.112-2.112V171.4c-.05.037-.1.074-.153.108Z" transform="translate(0 -102.336)" fill="#bfc8cc"/>
      <path id="パス_6445" data-name="パス 6445" d="M.9,68.056l9.4,6.267a2.106,2.106,0,0,0,2.343,0l9.4-6.267a2.012,2.012,0,0,0,.9-1.679,2.113,2.113,0,0,0-2.111-2.111H2.111A2.114,2.114,0,0,0,0,66.378a2.012,2.012,0,0,0,.9,1.678Z" transform="translate(0 0)" fill="#bfc8cc"/>
    </g>
  </g>
</svg>
