<svg xmlns="http://www.w3.org/2000/svg" xmlns:xlink="http://www.w3.org/1999/xlink" width="30" height="30" viewBox="0 0 30 30">
  <defs>
    <clipPath id="clip-path">
      <rect id="長方形_2842" data-name="長方形 2842" width="30" height="30" transform="translate(2561 38)" fill="#e2d9d9"/>
    </clipPath>
  </defs>
  <g id="マスクグループ_73" data-name="マスクグループ 73" transform="translate(-2561 -38)" clip-path="url(#clip-path)">
    <g id="info-button_1_" data-name="info-button (1)" transform="translate(2564.308 41.308)">
      <g id="グループ_14192" data-name="グループ 14192" transform="translate(0 0)">
        <path id="パス_6435" data-name="パス 6435" d="M19.961,3.424a11.693,11.693,0,1,0,0,16.536A11.694,11.694,0,0,0,19.961,3.424ZM13.217,16.776a1.525,1.525,0,0,1-3.05,0v-6.1a1.525,1.525,0,0,1,3.05,0ZM11.665,8.069a1.36,1.36,0,0,1-1.446-1.39A1.359,1.359,0,0,1,11.683,5.27a1.4,1.4,0,1,1-.018,2.8Z" transform="translate(0 0)" fill="#bfc8cc"/>
      </g>
    </g>
  </g>
</svg>
