<svg xmlns="http://www.w3.org/2000/svg" xmlns:xlink="http://www.w3.org/1999/xlink" width="30" height="30" viewBox="0 0 30 30">
  <defs>
    <clipPath id="clip-path">
      <rect id="長方形_2845" data-name="長方形 2845" width="30" height="30" transform="translate(2561 105)" fill="#e2d9d9"/>
    </clipPath>
  </defs>
  <g id="マスクグループ_76" data-name="マスクグループ 76" transform="translate(-2561 -105)" clip-path="url(#clip-path)">
    <g id="insurance" transform="translate(2507 109)">
      <path id="パス_6439" data-name="パス 6439" d="M351,8.787V12.8h4.011Z" transform="translate(-277.248 -8.401)" fill="#bfc8cc"/>
      <path id="パス_6440" data-name="パス 6440" d="M176.1,192H173.38a3.48,3.48,0,0,1-2.38,1.7v3.166a5.475,5.475,0,0,0,3.738,5.218,5.475,5.475,0,0,0,3.738-5.218V193.7A3.48,3.48,0,0,1,176.1,192Zm.974,4.28-2.487,2.487a.659.659,0,0,1-.933,0l-1.244-1.244a.66.66,0,0,1,.933-.933l.777.777,2.021-2.021a.66.66,0,1,1,.933.933Z" transform="translate(-105.163 -183.557)" fill="#bfc8cc"/>
      <path id="パス_6441" data-name="パス 6441" d="M73.093,5.717a.66.66,0,0,1-.66-.66V0H63.419A2.421,2.421,0,0,0,61,2.419V20.1a2.421,2.421,0,0,0,2.419,2.419H75.731A2.421,2.421,0,0,0,78.15,20.1V5.717Zm1.539,7.59a6.83,6.83,0,0,1-4.867,6.542.659.659,0,0,1-.379,0,6.83,6.83,0,0,1-4.867-6.542V9.542a.66.66,0,0,1,.66-.66,2.174,2.174,0,0,0,1.956-1.209l.093-.186a.66.66,0,0,1,.59-.365h3.518a.66.66,0,0,1,.59.365l.093.186a2.174,2.174,0,0,0,1.956,1.209.66.66,0,0,1,.66.66Z" fill="#bfc8cc"/>
    </g>
  </g>
</svg>
