<svg xmlns="http://www.w3.org/2000/svg" width="25" height="25" viewBox="0 0 25 25">
  <g id="グループ_15347" data-name="グループ 15347" transform="translate(-3354 -3127)">
    <rect id="長方形_15355" data-name="長方形 15355" width="25" height="25" transform="translate(3354 3127)" fill="#8b6363" opacity="0"/>
    <g id="グループ_15345" data-name="グループ 15345" transform="translate(3334.5 2798.498)">
      <g id="グループ_13646" data-name="グループ 13646">
        <g id="email_1_" data-name="email (1)" transform="translate(22.047 258.004)">
          <g id="グループ_13639" data-name="グループ 13639" transform="translate(1.02 83.824)">
            <g id="グループ_13638" data-name="グループ 13638" transform="translate(0 0)">
              <path id="パス_5136" data-name="パス 5136" d="M38.1,277.251l-1.667,1.673a1.845,1.845,0,0,1-2.556,0l-1.667-1.673-5.988,6.007a1.733,1.733,0,0,0,.73.165H43.363a1.731,1.731,0,0,0,.73-.164Z" transform="translate(-26.226 -277.251)" fill="#df201f"/>
            </g>
          </g>
          <g id="グループ_13641" data-name="グループ 13641" transform="translate(1.02 76)">
            <g id="グループ_13640" data-name="グループ 13640" transform="translate(0 0)">
              <path id="パス_5137" data-name="パス 5137" d="M43.365,76H26.958a1.732,1.732,0,0,0-.73.165l6.4,6.42h0l2.081,2.087a.7.7,0,0,0,.9,0l2.08-2.087h0l6.4-6.42A1.731,1.731,0,0,0,43.365,76Z" transform="translate(-26.228 -76)" fill="#df201f"/>
            </g>
          </g>
          <g id="グループ_13643" data-name="グループ 13643" transform="translate(0 76.98)">
            <g id="グループ_13642" data-name="グループ 13642" transform="translate(0 0)">
              <path id="パス_5138" data-name="パス 5138" d="M.186,101.212a1.728,1.728,0,0,0-.186.769v10.5a1.728,1.728,0,0,0,.186.769l6-6.018Z" transform="translate(0 -101.212)" fill="#df201f"/>
            </g>
          </g>
          <g id="グループ_13645" data-name="グループ 13645" transform="translate(13.722 76.98)">
            <g id="グループ_13644" data-name="グループ 13644" transform="translate(0 0)">
              <path id="パス_5139" data-name="パス 5139" d="M358.931,101.21l-6,6.018,6,6.018a1.728,1.728,0,0,0,.186-.769v-10.5A1.728,1.728,0,0,0,358.931,101.21Z" transform="translate(-352.933 -101.21)" fill="#df201f"/>
            </g>
          </g>
        </g>
      </g>
    </g>
  </g>
</svg>
