<svg xmlns="http://www.w3.org/2000/svg" width="17" height="17" viewBox="0 0 17 17">
  <g id="グループ_1611" data-name="グループ 1611" transform="translate(-3932 -6)">
    <rect id="長方形_1132" data-name="長方形 1132" width="17" height="17" transform="translate(3932 6)" fill="#fff" opacity="0"/>
    <g id="warning" transform="translate(3934.313 8.809)">
      <g id="グループ_979" data-name="グループ 979">
        <path id="パス_334" data-name="パス 334" d="M12.277,30.734,6.864,20.887a.774.774,0,0,0-1.355,0L.095,30.734a.759.759,0,0,0,.012.758.765.765,0,0,0,.666.379H11.6a.769.769,0,0,0,.678-1.137ZM6.064,24.458a.748.748,0,0,1,.123-.01.74.74,0,0,1,.731.614.722.722,0,0,1,0,.242L6.43,28.2a.247.247,0,0,1-.243.2.231.231,0,0,1-.041,0,.246.246,0,0,1-.2-.2l-.488-2.9A.735.735,0,0,1,6.064,24.458Zm.122,5.928a.742.742,0,1,1,.742-.742A.743.743,0,0,1,6.186,30.386Z" transform="translate(0 -20.488)" fill="#f0cc00"/>
      </g>
    </g>
  </g>
</svg>
