<svg id="image_1_" data-name="image (1)" xmlns="http://www.w3.org/2000/svg" width="512" height="512" viewBox="0 0 512 512">
  <g id="グループ_14187" data-name="グループ 14187">
    <g id="グループ_14186" data-name="グループ 14186">
      <path id="パス_6414" data-name="パス 6414" d="M464,0H48A48,48,0,0,0,0,48V464a48,48,0,0,0,48,48H464a48,48,0,0,0,48-48V48A48,48,0,0,0,464,0Zm16,464a16,16,0,0,1-16,16H48a16,16,0,0,1-16-16V48A16,16,0,0,1,48,32H464a16,16,0,0,1,16,16Z" fill="#3492B4"/>
      <path id="パス_6415" data-name="パス 6415" d="M347.36,276.64a16,16,0,0,0-22.56,0L288,313.44,219.36,244.8a16,16,0,0,0-22.56,0l-112,112A16,16,0,0,0,96,384H416a16,16,0,0,0,11.36-27.36Z" fill="#3492B4"/>
      <circle id="楕円形_164" data-name="楕円形 164" cx="48" cy="48" r="48" transform="translate(256 128)" fill="#3492B4"/>
    </g>
  </g>
</svg>
