<svg xmlns="http://www.w3.org/2000/svg" width="17" height="17" viewBox="0 0 17 17">
  <g id="グループ_1610" data-name="グループ 1610" transform="translate(-3932 19)">
    <rect id="長方形_1132" data-name="長方形 1132" width="17" height="17" transform="translate(3932 -19)" fill="#fff" opacity="0"/>
    <g id="Love" transform="translate(3963.293 -19.086)">
      <path id="パス_319" data-name="パス 319" d="M13.331,11.24,8.364,16.11a.207.207,0,0,1-.29,0L3.108,11.24A3.656,3.656,0,0,1,2.264,7.3,3.617,3.617,0,0,1,5.1,5.029,3.389,3.389,0,0,1,8.22,6.369a3.39,3.39,0,0,1,3.12-1.343,3.651,3.651,0,0,1,1.992,6.214Z" transform="translate(-31.013 -1.997)" fill="#cb1f1f"/>
    </g>
  </g>
</svg>
