<svg xmlns="http://www.w3.org/2000/svg" width="34" height="34" viewBox="0 0 34 34">
  <g id="グループ_1597" data-name="グループ 1597" transform="translate(-3283 -2407)">
    <rect id="長方形_1129" data-name="長方形 1129" width="34" height="34" transform="translate(3283 2407)" fill="#e2d9d9" opacity="0"/>
    <g id="Quiz" transform="translate(3285.198 2379.994)">
      <path id="パス_646" data-name="パス 646" d="M199.95,222.721a6.623,6.623,0,0,0,1.131-3.633c0-4.19-4.059-7.61-9.128-7.788-1.181,3.524-4.7,6.475-9.862,6.845a6.494,6.494,0,0,0-.09.943c0,4.3,4.28,7.805,9.54,7.805a11.011,11.011,0,0,0,5.088-1.221l3.294,1.171a.868.868,0,0,0,1.107-1.11Zm-11.011-2.766a.867.867,0,1,1-1.735,0V218.22a.867.867,0,1,1,1.735,0Zm3.469,0a.867.867,0,1,1-1.735,0V218.22a.867.867,0,1,1,1.735,0Zm3.469,0a.867.867,0,1,1-1.735,0V218.22a.867.867,0,1,1,1.735,0Z" transform="translate(-171.478 -169.877)" fill="#fff"/>
      <path id="パス_647" data-name="パス 647" d="M9.54,31a11,11,0,0,0-5.088,1.221L1.158,31.047a.868.868,0,0,0-1.107,1.11l1.08,3.012A6.623,6.623,0,0,0,0,38.8c0,4.3,4.28,7.805,9.54,7.805,5.132,0,9.54-3.388,9.54-7.805C19.08,34.5,14.8,31,9.54,31Zm0,12.142a.867.867,0,1,1,.867-.867A.867.867,0,0,1,9.54,43.139Zm.878-3.621a.94.94,0,0,1-.872.943.81.81,0,0,1-.873-.791,1.805,1.805,0,0,1,1.16-1.785.868.868,0,1,0-1.16-.817.867.867,0,0,1-1.735,0,2.6,2.6,0,1,1,3.48,2.45Z" transform="translate(0 0)" fill="#fff"/>
    </g>
  </g>
</svg>
