<svg xmlns="http://www.w3.org/2000/svg" xmlns:xlink="http://www.w3.org/1999/xlink" width="25" height="25" viewBox="0 0 25 25">
  <defs>
    <clipPath id="clip-path">
      <rect id="長方形_15353" data-name="長方形 15353" width="25" height="25" transform="translate(3344 3038)" fill="#fff"/>
    </clipPath>
  </defs>
  <g id="マスクグループ_10" data-name="マスクグループ 10" transform="translate(-3344 -3038)" clip-path="url(#clip-path)">
    <g id="グループ_15338" data-name="グループ 15338" transform="translate(3325.146 2768.216)">
      <g id="グループ_13637" data-name="グループ 13637" transform="translate(23.269 273.325)">
        <g id="newspaper_1_" data-name="newspaper (1)">
          <path id="パス_5133" data-name="パス 5133" d="M117.844,81h-1.225V92.724a1.577,1.577,0,0,1-1.575,1.575H105v1.26a.525.525,0,0,0,.525.525h12.319a.525.525,0,0,0,.525-.525V81.525A.525.525,0,0,0,117.844,81Z" transform="translate(-102.2 -78.165)" fill="#fff"/>
          <path id="パス_5134" data-name="パス 5134" d="M38.369,14.558V.525A.525.525,0,0,0,37.844,0H25.525A.525.525,0,0,0,25,.525V14.558a.525.525,0,0,0,.525.525H37.844A.525.525,0,0,0,38.369,14.558ZM27.24,5.039a.525.525,0,0,1,.525-.525h2.8a.525.525,0,0,1,.525.525v5.039a.525.525,0,0,1-.525.525h-2.8a.525.525,0,0,1-.525-.525Zm8.364,7.8H27.765a.525.525,0,1,1,0-1.05H35.6a.525.525,0,1,1,0,1.05Zm0-2.24H32.8a.525.525,0,0,1,0-1.05h2.8a.525.525,0,1,1,0,1.05Zm0-2.52H32.8a.525.525,0,0,1,0-1.05h2.8a.525.525,0,1,1,0,1.05Zm0-2.24H32.8a.525.525,0,0,1,0-1.05h2.8a.525.525,0,0,1,0,1.05Zm0-2.52H27.765a.525.525,0,1,1,0-1.05H35.6a.525.525,0,1,1,0,1.05Z" transform="translate(-25)" fill="#fff"/>
          <path id="パス_5135" data-name="パス 5135" d="M119,159h1.75v3.99H119Z" transform="translate(-115.71 -153.436)" fill="#fff"/>
        </g>
      </g>
    </g>
  </g>
</svg>
