<svg xmlns="http://www.w3.org/2000/svg" xmlns:xlink="http://www.w3.org/1999/xlink" width="35" height="35" viewBox="0 0 35 35">
  <defs>
    <linearGradient id="linear-gradient" x1="0.206" y1="0.704" x2="0.819" y2="0.922" gradientUnits="objectBoundingBox">
      <stop offset="0" stop-color="#c1bfb0"/>
      <stop offset="1" stop-color="#d2d0c9"/>
      <stop offset="1" stop-color="#d6d4ce"/>
    </linearGradient>
  </defs>
  <g id="グループ_1602" data-name="グループ 1602" transform="translate(-3185 -4051)">
    <rect id="長方形_710" data-name="長方形 710" width="35" height="35" transform="translate(3185 4051)" fill="url(#linear-gradient)"/>
    <path id="パス_652" data-name="パス 652" d="M13.97,0H.616L4.73-4.268Q6.358-5.962,7.282-7.139A15.806,15.806,0,0,0,8.657-9.13a5.232,5.232,0,0,0,.561-1.32,4.152,4.152,0,0,0,.11-.858,2.218,2.218,0,0,0-.121-.726,1.849,1.849,0,0,0-.363-.627,1.827,1.827,0,0,0-.583-.44,1.825,1.825,0,0,0-.8-.165,1.722,1.722,0,0,0-1.375.572,2.107,2.107,0,0,0-.495,1.43,5.4,5.4,0,0,0,.066.7H.946a7.079,7.079,0,0,1,.473-2.64A5.988,5.988,0,0,1,2.75-15.246a5.878,5.878,0,0,1,2.035-1.32,7.016,7.016,0,0,1,2.585-.462,7.263,7.263,0,0,1,2.563.44,6.124,6.124,0,0,1,2.035,1.232,5.657,5.657,0,0,1,1.342,1.881,5.757,5.757,0,0,1,.484,2.365,5.51,5.51,0,0,1-.583,2.519,8.867,8.867,0,0,1-1.859,2.365L8.6-3.652H13.97Z" transform="translate(3195 4077)" fill="#fff"/>
  </g>
</svg>
