<svg id="Group_15366" data-name="Group 15366" xmlns="http://www.w3.org/2000/svg" width="20.772" height="23.558" viewBox="0 0 20.772 23.558">
  <path id="Path_5543" data-name="Path 5543" d="M57.532,0l-.78,2.229,4.682,3.233Z" transform="translate(-43.885)" fill="#db2220"/>
  <path id="Path_5544" data-name="Path 5544" d="M62.417,65.275a1.406,1.406,0,1,0,1.406,1.406A1.408,1.408,0,0,0,62.417,65.275Z" transform="translate(-47.074 -48.874)" fill="#db2220"/>
  <path id="Path_5545" data-name="Path 5545" d="M25.584,16.306a1.891,1.891,0,0,0-.54-1.574l-.716-.716a1.923,1.923,0,0,0-1.571-.535,1.926,1.926,0,0,0-.151-.172V7.6L16.545,3.413,17.507.662H5.543V24.053H22.607v-.747a2.046,2.046,0,0,0,.148-.168,1.917,1.917,0,0,0,1.571-.536l.718-.718a1.887,1.887,0,0,0,.54-1.575,1.889,1.889,0,0,0,.731-1.493V17.8A1.891,1.891,0,0,0,25.584,16.306Zm-.641,2.5a.386.386,0,0,1-.386.386h-.614a3.153,3.153,0,0,1-.263.636l.434.434a.386.386,0,0,1,0,.546l-.718.718a.4.4,0,0,1-.545,0l-.434-.434a3.155,3.155,0,0,1-.636.264v.613a.386.386,0,0,1-.386.386H20.379a.386.386,0,0,1-.386-.386V21.36a3.126,3.126,0,0,1-.636-.264l-.434.434a.405.405,0,0,1-.545,0l-.718-.718a.382.382,0,0,1-.113-.273.389.389,0,0,1,.113-.273l.434-.434a3.167,3.167,0,0,1-.264-.636h-.614a.386.386,0,0,1-.386-.386V17.8a.386.386,0,0,1,.386-.386h.614a3.134,3.134,0,0,1,.264-.636l-.434-.434a.386.386,0,0,1,0-.546l.718-.718a.4.4,0,0,1,.545,0l.434.434a3.155,3.155,0,0,1,.636-.264v-.614a.386.386,0,0,1,.386-.386h1.015a.386.386,0,0,1,.386.386v.614a3.112,3.112,0,0,1,.636.264l.434-.434a.405.405,0,0,1,.545,0l.718.718a.384.384,0,0,1,.113.273.39.39,0,0,1-.113.273l-.434.434a3.2,3.2,0,0,1,.263.636h.614a.386.386,0,0,1,.386.386Z" transform="translate(-5.543 -0.496)" fill="#db2220"/>
</svg>
