<svg xmlns="http://www.w3.org/2000/svg" xmlns:xlink="http://www.w3.org/1999/xlink" width="35" height="35" viewBox="0 0 35 35">
  <defs>
    <linearGradient id="linear-gradient" x1="0.134" y1="0.168" x2="0.819" y2="0.922" gradientUnits="objectBoundingBox">
      <stop offset="0" stop-color="#d19e3e"/>
      <stop offset="1" stop-color="#c98a35"/>
    </linearGradient>
  </defs>
  <g id="グループ_1603" data-name="グループ 1603" transform="translate(-3185 -4309)">
    <rect id="長方形_711" data-name="長方形 711" width="35" height="35" transform="translate(3185 4309)" fill="url(#linear-gradient)"/>
    <path id="パス_653" data-name="パス 653" d="M6.578-10.12a2.461,2.461,0,0,0,.3.022h.209a1.83,1.83,0,0,0,1.32-.484,1.657,1.657,0,0,0,.506-1.254,1.616,1.616,0,0,0-.473-1.21,1.674,1.674,0,0,0-1.221-.462,1.649,1.649,0,0,0-1.276.528,1.94,1.94,0,0,0-.484,1.364H1.474a7.137,7.137,0,0,1,.649-2.31,5.533,5.533,0,0,1,1.265-1.7,5.276,5.276,0,0,1,1.8-1.056A6.869,6.869,0,0,1,7.48-17.05a6.9,6.9,0,0,1,2.233.341,5.026,5.026,0,0,1,1.716.968,4.215,4.215,0,0,1,1.1,1.518,4.97,4.97,0,0,1,.385,1.991,3.769,3.769,0,0,1-.451,1.947,4.05,4.05,0,0,1-1.287,1.309,3.678,3.678,0,0,1,1.991,1.419,4.289,4.289,0,0,1,.715,2.519A5.134,5.134,0,0,1,13.4-2.794a5.119,5.119,0,0,1-1.353,1.738A6.237,6.237,0,0,1,9.977.066a8.341,8.341,0,0,1-2.629.4A7.8,7.8,0,0,1,3.894-.286,5.651,5.651,0,0,1,1.43-2.662,4.75,4.75,0,0,1,.869-4.114,7.609,7.609,0,0,1,.726-5.588H4.994a2.462,2.462,0,0,0,.682,1.771,2.391,2.391,0,0,0,1.716.605,2.087,2.087,0,0,0,1.672-.616,2.252,2.252,0,0,0,.528-1.518,2.032,2.032,0,0,0-.638-1.628,2.249,2.249,0,0,0-1.518-.55,2.542,2.542,0,0,0-.418.033q-.2.033-.44.077Z" transform="translate(3195 4335)" fill="#fff"/>
  </g>
</svg>
