<svg xmlns="http://www.w3.org/2000/svg" width="34" height="34" viewBox="0 0 34 34">
  <g id="グループ_1601" data-name="グループ 1601" transform="translate(-3317 -2454)">
    <rect id="長方形_1131" data-name="長方形 1131" width="34" height="34" transform="translate(3317 2454)" fill="#e2d9d9" opacity="0"/>
    <g id="newspaper_2_" data-name="newspaper (2)" transform="translate(3294.292 2458.829)">
      <path id="パス_649" data-name="パス 649" d="M430.765,88.291H428.9l.014,20.127h.657a1.905,1.905,0,0,0,1.905-1.905V89A.713.713,0,0,0,430.765,88.291Z" transform="translate(-380.974 -84.093)" fill="#1d4e90"/>
      <g id="グループ_1600" data-name="グループ 1600" transform="translate(28.912)">
        <path id="パス_650" data-name="パス 650" d="M111.931,276.11h4.736v4.214h-4.736Z" transform="translate(-107.984 -262.983)" fill="#1d4e90"/>
        <path id="パス_651" data-name="パス 651" d="M46.5.713A.713.713,0,0,0,45.786,0H29.625a.713.713,0,0,0-.713.713V22.032a2.312,2.312,0,0,0,2.316,2.309l15.289-.017Zm-15.067,11.7a.713.713,0,0,1,.713-.713h6.162a.713.713,0,0,1,.713.713v5.64a.713.713,0,0,1-.713.713H32.146a.713.713,0,0,1-.713-.713Zm11.85,9.212H32.163a.713.713,0,0,1,0-1.426H43.283a.713.713,0,1,1,0,1.426Zm0-11.407H32.146a.713.713,0,1,1,0-1.426H43.282a.713.713,0,1,1,0,1.426Zm0-2.853H32.146a.713.713,0,1,1,0-1.426H43.282a.713.713,0,1,1,0,1.426Zm0-2.853H32.146a.713.713,0,1,1,0-1.426H43.282a.713.713,0,1,1,0,1.426Z" transform="translate(-28.912)" fill="#1d4e90"/>
      </g>
    </g>
  </g>
</svg>
