<svg xmlns="http://www.w3.org/2000/svg" xmlns:xlink="http://www.w3.org/1999/xlink" width="25" height="25" viewBox="0 0 25 25">
  <defs>
    <clipPath id="clip-path">
      <rect id="長方形_15347" data-name="長方形 15347" width="25" height="25" transform="translate(3126 3149)" fill="#fff"/>
    </clipPath>
  </defs>
  <g id="マスクグループ_6" data-name="マスクグループ 6" transform="translate(-3126 -3149)" clip-path="url(#clip-path)">
    <g id="グループ_13630" data-name="グループ 13630" transform="translate(3058.563 2225.08)">
      <path id="パス_14" data-name="パス 14" d="M15.914,10.966a2.983,2.983,0,1,0-2.983-2.983A2.97,2.97,0,0,0,15.914,10.966Zm-7.954,0A2.983,2.983,0,1,0,4.977,7.983,2.97,2.97,0,0,0,7.96,10.966Zm0,1.989c-2.317,0-6.96,1.163-6.96,3.48V18.92H14.92V16.434C14.92,14.118,10.277,12.954,7.96,12.954Zm7.954,0c-.288,0-.616.02-.964.05a4.2,4.2,0,0,1,1.959,3.43V18.92h5.966V16.434C22.874,14.118,18.231,12.954,15.914,12.954Z" transform="translate(68 924)" fill="#df201f"/>
    </g>
  </g>
</svg>
