<svg id="calendar" xmlns="http://www.w3.org/2000/svg" width="18.038" height="18.825" viewBox="0 0 18.038 18.825">
  <path id="Path_5529" data-name="Path 5529" d="M160.483,241.971a3.237,3.237,0,1,0-3.237-3.237A3.241,3.241,0,0,0,160.483,241.971Zm-1.907-3.747a.545.545,0,0,1,.771,0l.712.712,1.561-1.561a.545.545,0,0,1,.771.771l-1.946,1.946a.545.545,0,0,1-.771,0l-1.1-1.1A.545.545,0,0,1,158.576,238.224Zm0,0" transform="translate(-151.464 -226.837)" fill="#fff"/>
  <path id="Path_5530" data-name="Path 5530" d="M0,175.736A1.765,1.765,0,0,0,1.763,177.5H16.275a1.765,1.765,0,0,0,1.763-1.763V164.73H0Zm9.019-9.494a4.328,4.328,0,1,1-4.328,4.327A4.332,4.332,0,0,1,9.019,166.242Zm0,0" transform="translate(0 -158.674)" fill="#fff"/>
  <path id="Path_5531" data-name="Path 5531" d="M18.041,44.9V43.216a1.765,1.765,0,0,0-1.763-1.763h-.994v.979a.545.545,0,0,1-1.09,0v-.979H13.123v.979a.545.545,0,0,1-1.09,0v-.979H6.013v.979a.545.545,0,0,1-1.09,0v-.979H3.851v.979a.545.545,0,0,1-1.09,0v-.979H1.767A1.765,1.765,0,0,0,0,43.216V44.9Zm0,0" transform="translate(-0.004 -39.929)" fill="#fff"/>
  <path id="Path_5532" data-name="Path 5532" d="M387.032.545a.545.545,0,0,0-1.09,0v.979h1.09Zm0,0" transform="translate(-371.751)" fill="#fff"/>
  <path id="Path_5533" data-name="Path 5533" d="M328.239.545a.545.545,0,0,0-1.09,0v.979h1.09Zm0,0" transform="translate(-315.12)" fill="#fff"/>
  <path id="Path_5534" data-name="Path 5534" d="M134.875.545a.545.545,0,0,0-1.09,0v.979h1.09Zm0,0" transform="translate(-128.866)" fill="#fff"/>
  <path id="Path_5535" data-name="Path 5535" d="M76.086.545a.545.545,0,0,0-1.09,0v.979h1.09Zm0,0" transform="translate(-72.239)" fill="#fff"/>
</svg>
