<svg id="calendar" xmlns="http://www.w3.org/2000/svg" width="20.423" height="21.315" viewBox="0 0 20.423 21.315">
  <path id="Path_5529" data-name="Path 5529" d="M160.912,242.827a3.665,3.665,0,1,0-3.665-3.665A3.67,3.67,0,0,0,160.912,242.827Zm-2.159-4.242a.617.617,0,0,1,.873,0l.806.806,1.767-1.767a.617.617,0,1,1,.873.873l-2.2,2.2a.618.618,0,0,1-.873,0l-1.242-1.242A.617.617,0,0,1,158.752,238.585Zm0,0" transform="translate(-150.7 -225.692)" fill="#df201f"/>
  <path id="Path_5530" data-name="Path 5530" d="M0,177.192a2,2,0,0,0,2,2H18.427a2,2,0,0,0,2-2V164.73H0Zm10.212-10.749a4.9,4.9,0,1,1-4.9,4.9A4.905,4.905,0,0,1,10.212,166.442Zm0,0" transform="translate(0 -157.873)" fill="#df201f"/>
  <path id="Path_5531" data-name="Path 5531" d="M20.427,45.351v-1.9a2,2,0,0,0-2-2H17.305v1.109a.617.617,0,0,1-1.234,0V41.453H14.858v1.109a.617.617,0,0,1-1.234,0V41.453H6.808v1.109a.617.617,0,0,1-1.234,0V41.453H4.36v1.109a.617.617,0,0,1-1.234,0V41.453H2a2,2,0,0,0-2,2v1.9Zm0,0" transform="translate(-0.004 -39.727)" fill="#df201f"/>
  <path id="Path_5532" data-name="Path 5532" d="M387.176.617a.617.617,0,0,0-1.234,0V1.726h1.234Zm0,0" transform="translate(-369.874)" fill="#df201f"/>
  <path id="Path_5533" data-name="Path 5533" d="M328.383.617a.617.617,0,0,0-1.234,0V1.726h1.234Zm0,0" transform="translate(-313.529)" fill="#df201f"/>
  <path id="Path_5534" data-name="Path 5534" d="M135.02.617a.617.617,0,0,0-1.234,0V1.726h1.234Zm0,0" transform="translate(-128.216)" fill="#df201f"/>
  <path id="Path_5535" data-name="Path 5535" d="M76.231.617A.617.617,0,0,0,75,.617V1.726h1.234Zm0,0" transform="translate(-71.874)" fill="#df201f"/>
</svg>
