<svg id="svg" version="1.1" xmlns="http://www.w3.org/2000/svg" xmlns:xlink="http://www.w3.org/1999/xlink" width="400" height="551.3513513513514" viewBox="0, 0, 400,551.3513513513514"><g id="svgg"><path id="path0" d="M149.116 51.351 C 142.196 67.703,119.219 99.531,98.056 122.082 C 61.461 161.076,59.381 167.421,55.553 251.712 C 52.556 317.701,46.328 346.953,31.170 366.223 C -11.039 419.882,20.507 475.676,93.054 475.676 C 117.593 475.676,132.242 483.304,144.952 502.703 C 169.197 539.705,219.992 539.705,244.237 502.703 C 256.948 483.304,271.596 475.676,296.135 475.676 C 368.682 475.676,400.228 419.882,358.020 366.223 C 342.861 346.953,336.633 317.701,333.636 251.712 C 329.808 167.421,327.728 161.076,291.133 122.082 C 269.971 99.531,246.993 67.703,240.073 51.351 C 222.103 8.891,167.086 8.891,149.116 51.351 M210.811 64.865 C 214.486 70.811,207.188 75.676,194.595 75.676 C 182.001 75.676,174.704 70.811,178.378 64.865 C 182.053 58.919,189.350 54.054,194.595 54.054 C 199.839 54.054,207.136 58.919,210.811 64.865 M270.089 146.272 C 293.311 169.481,297.865 186.264,303.832 270.648 C 308.813 341.093,315.986 374.003,329.649 389.100 C 370.226 433.937,347.012 443.243,194.595 443.243 C 42.177 443.243,18.963 433.937,59.540 389.100 C 73.172 374.037,80.369 341.196,85.291 271.592 C 96.064 119.238,183.624 59.859,270.089 146.272 M221.622 486.486 C 217.947 492.432,205.785 497.297,194.595 497.297 C 183.405 497.297,171.242 492.432,167.568 486.486 C 163.659 480.162,174.875 475.676,194.595 475.676 C 214.314 475.676,225.530 480.162,221.622 486.486 " stroke="none" fill="#000000" fill-rule="evenodd"></path></g></svg>