<!-- <svg xmlns="http://www.w3.org/2000/svg" width="31.912" height="34.48" viewBox="0 0 31.912 34.48">
  <g id="Group_611" data-name="Group 611" transform="translate(-903.088 -26)">
    <path id="bell-solid" d="M15,1.875V3a9.381,9.381,0,0,1,7.5,9.187v1.1a11.266,11.266,0,0,0,2.842,7.477l.434.486a1.876,1.876,0,0,1-1.4,3.123H1.875a1.876,1.876,0,0,1-1.4-3.123l.435-.486A11.254,11.254,0,0,0,3.75,13.289v-1.1A9.329,9.329,0,0,1,11.25,3V1.875a1.875,1.875,0,0,1,3.75,0ZM13.125,30a3.751,3.751,0,0,1-2.654-1.1,3.845,3.845,0,0,1-1.1-2.654h7.5A3.741,3.741,0,0,1,13.125,30Z" transform="translate(903.088 30.48)" fill="#72777c"/>
    <g id="Group_610" data-name="Group 610" transform="translate(8 -2)">
      <rect id="Rectangle_136" data-name="Rectangle 136" width="15" height="15" rx="3" transform="translate(912 28)" fill="#ff6161"/>
      <text id="_3" data-name="3" transform="translate(920 39)" fill="#fff" font-size="10" font-family="SegoeUI, Segoe UI" letter-spacing="0.03em"><tspan x="-2.695" y="0">3</tspan></text>
    </g>
  </g>
</svg> -->
<svg xmlns="http://www.w3.org/2000/svg" width="26.251" height="30" viewBox="0 0 26.251 30">
  <path id="bell-solid" d="M15,1.875V3a9.381,9.381,0,0,1,7.5,9.187v1.1a11.266,11.266,0,0,0,2.842,7.477l.434.486a1.876,1.876,0,0,1-1.4,3.123H1.875a1.876,1.876,0,0,1-1.4-3.123l.435-.486A11.254,11.254,0,0,0,3.75,13.289v-1.1A9.329,9.329,0,0,1,11.25,3V1.875a1.875,1.875,0,0,1,3.75,0ZM13.125,30a3.751,3.751,0,0,1-2.654-1.1,3.845,3.845,0,0,1-1.1-2.654h7.5A3.741,3.741,0,0,1,13.125,30Z" transform="translate(0)" fill="#72777c"/>
</svg>
