<svg xmlns="http://www.w3.org/2000/svg" width="18.131" height="9.671" viewBox="681.796 4259.293 18.131 9.671"><path d="M683.071 4259.294a1.26 1.26 0 0 1 .903.38l6.887 6.142 6.888-6.141c.239-.244.563-.382.902-.382.338 0 .663.138.901.382.24.244.375.576.375.921 0 .346-.135.678-.375.922l-7.79 7.063a1.26 1.26 0 0 1-.9.382c-.339 0-.663-.137-.903-.382l-7.79-7.063a1.326 1.326 0 0 1-.276-1.42c.096-.238.26-.441.469-.584.21-.143.456-.22.71-.22" fill="#1aa594" fill-rule="evenodd" data-name="Path 549"/></svg>