<svg xmlns="http://www.w3.org/2000/svg" width="28.28" height="34.406" viewBox="30.544 647.067 28.28 34.406"><g data-name="Group 969"><g data-name="Group 966"><g data-name="Rectangle 253"><path d="m41.602 655.395-.335-3.186a.596.596 0 0 1 .53-.655.596.596 0 0 1 .655.53l.335 3.187a.596.596 0 0 1-.53.655.596.596 0 0 1-.655-.53z" fill="#fff" fill-rule="evenodd"/><path d="M.596 0H3.8a.596.596 0 0 1 .596.596h0a.596.596 0 0 1-.596.595H.596A.596.596 0 0 1 0 .596h0A.596.596 0 0 1 .596 0z" stroke-linejoin="round" stroke-linecap="square" stroke="#414141" fill="transparent" transform="matrix(-.1283 -1.22078 1.82921 -.19226 41.22 656.537)"/></g><g data-name="Rectangle 252"><path d="m37.674 656.235-1.844-3.954a.596.596 0 0 1 .288-.792.596.596 0 0 1 .792.288l1.844 3.955a.596.596 0 0 1-.288.791.596.596 0 0 1-.792-.288z" fill="#fff" fill-rule="evenodd"/><path d="M.596 0h4.363a.596.596 0 0 1 .596.596h0a.596.596 0 0 1-.596.595H.596A.596.596 0 0 1 0 .596h0A.596.596 0 0 1 .596 0z" stroke-linejoin="round" stroke-linecap="square" stroke="#414141" fill="transparent" transform="rotate(-115 228.26 316.715) scale(1.18003 1.83932)"/></g><g data-name="Rectangle 251"><path d="m34.509 658.622-2.306-2.226a.596.596 0 0 1-.014-.843.596.596 0 0 1 .842-.015l2.306 2.227a.596.596 0 0 1 .014.842.596.596 0 0 1-.842.015z" fill="#fff" fill-rule="evenodd"/><path d="M.596 0H3.8a.596.596 0 0 1 .596.596h0a.596.596 0 0 1-.596.595H.596A.596.596 0 0 1 0 .596h0A.596.596 0 0 1 .596 0z" stroke-linejoin="round" stroke-linecap="square" stroke="#414141" fill="transparent" transform="rotate(-136 150.752 322.811) scale(1.22745 1.83935)"/></g></g><g data-name="Group 965"><path d="M46.202 666.539a.573.573 0 0 1-.472-.897c.506-.738 1.23-1.135 2.092-1.147.814-.011 1.568.322 2.056.603a.573.573 0 0 1-.571.993c-.515-.296-1.037-.456-1.469-.45-.488.007-.868.219-1.163.649a.572.572 0 0 1-.473.249" fill="#414141" fill-rule="evenodd" data-name="Path 597"/><path d="M49.843 681.473a.573.573 0 0 1-.523-.338l-.527-1.174c-.604-.285-2.53-1.2-4.524-2.255-1.414-.747-2.589-1.418-3.49-1.994-1.22-.779-1.925-1.367-2.222-1.853a1.808 1.808 0 0 1-.186-1.51c.188-.593.667-1.105 1.282-1.371.991-.43 2.064-.105 2.926.156.143.043.279.084.409.12.218.061.465.15.755.262l-.476-1.154c-1.775-4.301-3.385-8.25-3.585-9.305-.127-.672-.103-1.256.07-1.736.176-.49.5-.849.937-1.036.863-.372 1.944.028 2.628.973 1.073 1.482 3.81 7.277 3.925 7.523a.573.573 0 0 1-1.036.489c-.028-.06-2.807-5.944-3.817-7.34-.302-.418-.842-.768-1.247-.593-.353.152-.48.73-.334 1.508.194 1.026 2.356 6.266 3.518 9.08.452 1.095.808 1.96.98 2.397a.573.573 0 0 1-.736.745c-.31-.117-.59-.227-.836-.324-.445-.175-.796-.313-1.054-.385a21.05 21.05 0 0 1-.432-.128c-.754-.228-1.534-.463-2.14-.2-.31.133-.557.389-.645.666a.66.66 0 0 0 .072.565c.175.287 1.04 1.197 5.266 3.43a114.547 114.547 0 0 0 4.669 2.322c.125.058.225.159.281.285l.385.856 7.304-3.086-.603-1.085a.573.573 0 0 1-.052-.43c.002-.006.228-.873.2-2.301-.027-1.316-.283-3.393-1.349-5.814-.39-.888-.718-1.55-1.045-1.887-.246-.254-.5-.346-1.012-.365-.131-.005-.441.165-.632.32a.56.56 0 0 1-.444.135.54.54 0 0 1-.38-.24c-.039-.045-.29-.308-.88-.43-.44-.092-.893-.185-1.724.71a.573.573 0 0 1-.84-.78c1.172-1.263 2.058-1.205 2.796-1.053.53.11.907.307 1.16.488.268-.155.628-.308.987-.295 1.008.037 1.472.382 1.793.714.448.463.805 1.165 1.27 2.221.636 1.446 1.404 3.714 1.446 6.309.018 1.138-.11 1.953-.187 2.332l.808 1.452a.573.573 0 0 1-.278.806l-8.408 3.552a.57.57 0 0 1-.223.046m2.276-16.078Z" fill="#414141" fill-rule="evenodd" data-name="Path 596"/><path d="M49 665.347c1.218-1.099 1.793-.917 2.374-.797.892.185 1.226.652 1.226.652s.152-.247.644-.51c1.19-.557 1.948.328 2.932 2.656 2.084 4.933 1.176 8.497 1.176 8.497l.914 1.643-8.408 3.553-.614-1.368s-9.118-4.229-10.183-5.972c-.49-.801.035-1.71.834-2.057.939-.406 2.04.048 2.954.303.441.123 1.23.347 1.886.344-.66-1.695-4.2-9.743-4.475-11.2-.473-2.505 1.554-2.813 2.608-1.357 1.054 1.456 3.87 7.432 3.87 7.432s-.718-1.754.403-1.962c1.12-.208 1.86.143 1.86.143" fill="#fff" fill-rule="evenodd" data-name="Path 595"/></g></g></svg>