<svg id="svg" version="1.1" xmlns="http://www.w3.org/2000/svg" xmlns:xlink="http://www.w3.org/1999/xlink" width="400" height="325.4237288135593" viewBox="0, 0, 400,325.4237288135593"><g id="svgg"><path id="path0" d="M186.981 13.863 C 178.038 14.540,174.676 15.186,166.965 17.708 C 164.011 18.674,159.764 19.999,157.526 20.652 C 151.119 22.523,139.889 27.652,135.109 30.889 C 134.103 31.571,131.930 32.888,130.281 33.816 C 119.460 39.906,102.179 56.040,95.039 66.721 C 94.261 67.884,92.637 70.155,91.429 71.766 C 89.452 74.405,86.041 79.616,83.612 83.710 C 83.113 84.552,81.904 87.115,80.925 89.406 C 79.946 91.697,78.535 94.670,77.790 96.013 C 69.094 111.677,61.177 152.702,63.119 172.033 C 65.256 193.298,67.534 204.745,72.570 219.528 C 75.881 229.246,75.962 229.451,77.790 232.677 C 78.541 234.001,79.851 236.711,80.702 238.698 C 83.278 244.712,87.602 252.145,91.135 256.631 C 91.981 257.705,93.592 259.901,94.715 261.511 C 101.325 270.985,117.743 287.041,125.978 292.085 C 127.666 293.119,130.513 294.917,132.303 296.081 C 135.321 298.042,138.033 299.601,144.670 303.187 C 146.142 303.982,149.043 305.113,151.343 305.787 C 153.580 306.443,157.466 307.836,159.978 308.882 C 166.850 311.745,171.650 312.763,184.703 314.125 C 199.566 315.676,220.194 313.388,230.398 309.056 C 232.654 308.099,236.843 306.571,239.707 305.662 C 243.147 304.569,245.799 303.497,247.518 302.502 C 248.950 301.674,251.587 300.183,253.377 299.189 C 255.167 298.195,257.730 296.621,259.072 295.692 C 260.415 294.762,262.942 293.167,264.689 292.147 C 274.688 286.310,290.011 270.851,298.762 257.771 C 299.541 256.607,301.095 254.410,302.217 252.889 C 303.339 251.367,304.912 248.804,305.714 247.193 C 306.516 245.582,308.058 242.672,309.140 240.727 C 310.222 238.782,311.723 235.633,312.476 233.729 C 313.229 231.826,314.684 228.584,315.709 226.526 C 317.895 222.139,318.294 220.976,319.599 215.200 C 320.137 212.819,321.384 208.426,322.371 205.436 C 324.608 198.654,325.329 195.328,325.770 189.748 C 327.533 167.442,327.603 163.516,326.506 148.251 C 325.401 132.880,325.314 132.357,322.375 123.352 C 321.411 120.399,320.032 115.437,319.311 112.326 C 318.115 107.170,317.757 106.163,315.264 100.935 C 313.760 97.780,312.282 94.540,311.978 93.735 C 311.675 92.929,310.606 90.732,309.603 88.853 C 308.599 86.973,306.956 83.815,305.951 81.835 C 304.144 78.276,302.459 75.828,293.915 64.355 C 285.780 53.430,270.572 39.560,260.366 33.759 C 258.670 32.794,255.960 31.139,254.344 30.079 C 252.727 29.020,250.530 27.756,249.462 27.270 C 240.134 23.033,236.576 21.599,232.272 20.340 C 229.559 19.547,225.435 18.239,223.108 17.434 C 214.490 14.454,199.170 12.940,186.981 13.863 M208.788 27.832 C 216.851 28.510,220.444 29.262,225.669 31.367 C 228.020 32.314,232.038 33.722,234.599 34.497 C 237.701 35.436,240.091 36.392,241.759 37.364 C 243.137 38.166,245.875 39.735,247.844 40.850 C 260.628 48.091,275.655 60.959,282.949 70.912 C 284.048 72.412,286.056 75.122,287.410 76.933 C 290.894 81.593,296.280 90.122,297.364 92.696 C 297.868 93.894,299.560 97.400,301.124 100.487 C 303.087 104.364,304.380 107.436,305.303 110.414 C 306.038 112.786,307.497 117.290,308.545 120.423 C 311.374 128.879,312.073 132.914,313.744 150.421 C 314.989 163.469,314.977 165.727,313.585 179.903 C 311.992 196.130,311.029 201.494,308.410 208.729 C 307.780 210.471,306.515 214.346,305.600 217.340 C 304.344 221.447,303.390 223.821,301.708 227.014 C 300.483 229.341,298.795 232.856,297.957 234.825 C 296.367 238.560,291.806 245.899,287.540 251.587 C 286.264 253.287,284.359 255.850,283.306 257.282 C 277.086 265.745,262.521 279.065,253.927 284.149 C 252.013 285.281,249.422 286.891,248.169 287.728 C 245.335 289.620,243.158 290.729,239.516 292.136 C 237.955 292.738,235.309 293.839,233.636 294.580 C 220.062 300.597,199.042 303.060,182.099 300.620 C 168.646 298.682,164.569 297.746,158.836 295.276 C 156.952 294.465,153.360 292.979,150.854 291.975 C 147.801 290.751,145.117 289.385,142.718 287.832 C 140.749 286.559,138.077 284.906,136.780 284.161 C 133.831 282.465,127.237 277.565,124.377 274.943 C 114.098 265.522,107.876 258.572,102.301 250.285 C 101.398 248.942,99.817 246.672,98.788 245.240 C 97.759 243.808,96.185 241.172,95.290 239.382 C 94.395 237.592,92.883 234.736,91.930 233.035 C 90.977 231.334,89.616 228.478,88.906 226.688 C 88.196 224.898,86.811 221.676,85.828 219.528 C 83.741 214.967,83.057 212.767,81.727 206.347 C 81.190 203.751,80.170 199.487,79.462 196.871 C 74.329 177.914,74.433 150.443,79.711 130.716 C 80.590 127.432,81.704 122.785,82.188 120.389 C 83.129 115.721,84.123 112.627,85.671 109.546 C 86.204 108.486,87.440 105.630,88.418 103.199 C 89.396 100.768,90.976 97.388,91.929 95.688 C 92.883 93.987,94.470 90.985,95.457 89.015 C 99.404 81.139,110.192 67.254,118.491 59.368 C 127.492 50.816,133.404 46.313,142.392 41.161 C 144.361 40.032,147.144 38.433,148.576 37.607 C 150.279 36.625,152.981 35.533,156.387 34.449 C 159.251 33.537,163.195 32.147,165.151 31.360 C 171.129 28.952,173.395 28.529,185.842 27.494 C 192.101 26.974,199.962 27.090,208.788 27.832 M188.834 97.013 C 180.726 98.066,169.570 106.246,165.978 113.774 C 163.364 119.250,165.910 124.860,171.182 125.241 C 174.697 125.495,175.658 124.593,180.830 116.192 C 185.167 109.147,188.311 107.413,196.745 107.415 C 205.093 107.417,208.523 109.109,211.971 114.929 C 216.996 123.410,214.171 132.918,203.171 144.552 C 194.311 153.922,191.641 159.087,191.163 167.779 C 190.927 172.091,192.618 174.155,196.014 173.700 C 198.738 173.335,199.585 172.184,200.814 167.183 C 202.635 159.767,204.725 156.957,214.809 148.366 C 224.533 140.081,228.581 132.699,228.614 123.190 C 228.650 112.750,223.252 105.143,211.696 99.345 C 207.118 97.049,196.726 95.988,188.834 97.013 M192.840 186.797 C 189.129 187.701,187.061 191.393,187.675 196.019 C 188.184 199.858,192.045 202.260,196.713 201.641 C 200.656 201.118,202.279 199.168,202.278 194.955 C 202.276 188.526,198.642 185.385,192.840 186.797 " stroke="none" fill="#5c5c5c" fill-rule="evenodd"></path><path id="path1" d="M0.000 162.734 L 0.000 325.468 200.000 325.468 L 400.000 325.468 400.000 162.734 L 400.000 0.000 200.000 0.000 L 0.000 0.000 0.000 162.734 M210.578 14.452 C 215.721 15.174,218.450 15.824,223.108 17.434 C 225.435 18.239,229.559 19.547,232.272 20.340 C 236.576 21.599,240.134 23.033,249.462 27.270 C 250.530 27.756,252.727 29.020,254.344 30.079 C 255.960 31.139,258.670 32.794,260.366 33.759 C 275.466 42.343,297.934 66.039,305.951 81.835 C 306.956 83.815,308.599 86.973,309.603 88.853 C 310.606 90.732,311.675 92.929,311.978 93.735 C 312.282 94.540,313.760 97.780,315.264 100.935 C 317.757 106.163,318.115 107.170,319.311 112.326 C 320.032 115.437,321.411 120.399,322.375 123.352 C 325.314 132.357,325.401 132.880,326.506 148.251 C 327.603 163.516,327.533 167.442,325.770 189.748 C 325.329 195.328,324.608 198.654,322.371 205.436 C 321.384 208.426,320.137 212.819,319.599 215.200 C 318.294 220.976,317.895 222.139,315.709 226.526 C 314.684 228.584,313.229 231.826,312.476 233.729 C 311.723 235.633,310.222 238.782,309.140 240.727 C 308.058 242.672,306.516 245.582,305.714 247.193 C 304.912 248.804,303.339 251.367,302.217 252.889 C 301.095 254.410,299.541 256.607,298.762 257.771 C 290.011 270.851,274.688 286.310,264.689 292.147 C 262.942 293.167,260.415 294.762,259.072 295.692 C 257.730 296.621,255.167 298.195,253.377 299.189 C 251.587 300.183,248.950 301.674,247.518 302.502 C 245.799 303.497,243.147 304.569,239.707 305.662 C 236.843 306.571,232.654 308.099,230.398 309.056 C 212.977 316.452,177.938 316.365,159.978 308.882 C 157.466 307.836,153.580 306.443,151.343 305.787 C 149.043 305.113,146.142 303.982,144.670 303.187 C 138.033 299.601,135.321 298.042,132.303 296.081 C 130.513 294.917,127.666 293.119,125.978 292.085 C 117.743 287.041,101.325 270.985,94.715 261.511 C 93.592 259.901,91.981 257.705,91.135 256.631 C 87.602 252.145,83.278 244.712,80.702 238.698 C 79.851 236.711,78.541 234.001,77.790 232.677 C 75.962 229.451,75.881 229.246,72.570 219.528 C 67.534 204.745,65.256 193.298,63.119 172.033 C 62.038 161.274,64.768 136.866,68.855 120.749 C 70.587 113.920,75.686 99.803,77.790 96.013 C 78.535 94.670,79.946 91.697,80.925 89.406 C 81.904 87.115,83.113 84.552,83.612 83.710 C 86.041 79.616,89.452 74.405,91.429 71.766 C 92.637 70.155,94.261 67.884,95.039 66.721 C 102.179 56.040,119.460 39.906,130.281 33.816 C 131.930 32.888,134.103 31.571,135.109 30.889 C 139.889 27.652,151.119 22.523,157.526 20.652 C 159.764 19.999,164.011 18.674,166.965 17.708 C 174.676 15.186,178.038 14.540,186.981 13.863 C 190.734 13.579,207.305 13.992,210.578 14.452 M185.842 27.494 C 173.395 28.529,171.129 28.952,165.151 31.360 C 163.195 32.147,159.251 33.537,156.387 34.449 C 152.981 35.533,150.279 36.625,148.576 37.607 C 147.144 38.433,144.361 40.032,142.392 41.161 C 125.613 50.778,114.629 61.281,99.805 81.885 C 98.400 83.838,96.444 87.046,95.457 89.015 C 94.470 90.985,92.883 93.987,91.929 95.688 C 90.976 97.388,89.396 100.768,88.418 103.199 C 87.440 105.630,86.204 108.486,85.671 109.546 C 84.123 112.627,83.129 115.721,82.188 120.389 C 81.704 122.785,80.590 127.432,79.711 130.716 C 74.433 150.443,74.329 177.914,79.462 196.871 C 80.170 199.487,81.190 203.751,81.727 206.347 C 83.057 212.767,83.741 214.967,85.828 219.528 C 86.811 221.676,88.196 224.898,88.906 226.688 C 89.616 228.478,90.977 231.334,91.930 233.035 C 92.883 234.736,94.395 237.592,95.290 239.382 C 96.185 241.172,97.759 243.808,98.788 245.240 C 99.817 246.672,101.398 248.942,102.301 250.285 C 107.876 258.572,114.098 265.522,124.377 274.943 C 127.237 277.565,133.831 282.465,136.780 284.161 C 138.077 284.906,140.749 286.559,142.718 287.832 C 145.117 289.385,147.801 290.751,150.854 291.975 C 153.360 292.979,156.952 294.465,158.836 295.276 C 171.453 300.711,192.317 302.945,208.625 300.607 C 222.730 298.585,226.831 297.596,233.636 294.580 C 235.309 293.839,237.955 292.738,239.516 292.136 C 243.158 290.729,245.335 289.620,248.169 287.728 C 249.422 286.891,252.013 285.281,253.927 284.149 C 262.521 279.065,277.086 265.745,283.306 257.282 C 284.359 255.850,286.264 253.287,287.540 251.587 C 291.806 245.899,296.367 238.560,297.957 234.825 C 298.795 232.856,300.483 229.341,301.708 227.014 C 303.390 223.821,304.344 221.447,305.600 217.340 C 306.515 214.346,307.780 210.471,308.410 208.729 C 311.029 201.494,311.992 196.130,313.585 179.903 C 314.977 165.727,314.989 163.469,313.744 150.421 C 312.073 132.914,311.374 128.879,308.545 120.423 C 307.497 117.290,306.038 112.786,305.303 110.414 C 304.380 107.436,303.087 104.364,301.124 100.487 C 299.560 97.400,297.868 93.894,297.364 92.696 C 296.280 90.122,290.894 81.593,287.410 76.933 C 286.056 75.122,284.048 72.412,282.949 70.912 C 275.655 60.959,260.628 48.091,247.844 40.850 C 245.875 39.735,243.137 38.166,241.759 37.364 C 240.091 36.392,237.701 35.436,234.599 34.497 C 232.038 33.722,228.020 32.314,225.669 31.367 C 217.201 27.956,200.186 26.302,185.842 27.494 M202.775 97.002 C 217.786 98.844,228.659 109.865,228.614 123.190 C 228.581 132.699,224.533 140.081,214.809 148.366 C 204.725 156.957,202.635 159.767,200.814 167.183 C 199.585 172.184,198.738 173.335,196.014 173.700 C 192.618 174.155,190.927 172.091,191.163 167.779 C 191.641 159.087,194.311 153.922,203.171 144.552 C 214.171 132.918,216.996 123.410,211.971 114.929 C 208.523 109.109,205.093 107.417,196.745 107.415 C 188.311 107.413,185.167 109.147,180.830 116.192 C 175.658 124.593,174.697 125.495,171.182 125.241 C 161.178 124.517,163.838 111.185,175.605 103.074 C 184.402 97.011,190.938 95.550,202.775 97.002 M197.649 186.838 C 202.892 188.294,204.272 198.099,199.602 200.724 C 194.845 203.397,188.311 200.821,187.675 196.019 C 186.803 189.452,191.499 185.130,197.649 186.838 " stroke="none" fill="#fbfbfb" fill-rule="evenodd"></path></g></svg>