<?xml version="1.0" standalone="no"?>
<!DOCTYPE svg PUBLIC "-//W3C//DTD SVG 20010904//EN"
 "http://www.w3.org/TR/2001/REC-SVG-20010904/DTD/svg10.dtd">
<svg version="1.0" xmlns="http://www.w3.org/2000/svg"
 width="20.000000pt" height="20.000000pt" viewBox="0 0 20.000000 20.000000"
 preserveAspectRatio="xMidYMid meet">
<metadata>
Created by potrace 1.16, written by Peter Selinger 2001-2019
</metadata>
<g transform="translate(0.000000,20.000000) scale(0.062500,-0.062500)"
fill="#000000" stroke="none">
<path d="M140 281 c0 -23 -37 -38 -53 -22 -16 16 -41 -7 -26 -25 15 -19 1 -54
-22 -54 -12 0 -19 -7 -19 -20 0 -13 7 -20 19 -20 23 0 38 -37 22 -53 -16 -16
7 -41 25 -26 19 15 54 1 54 -22 0 -12 7 -19 20 -19 13 0 20 7 20 19 0 23 37
38 53 22 16 -16 41 7 26 25 -15 19 -1 54 22 54 12 0 19 7 19 20 0 13 -7 20
-19 20 -23 0 -37 35 -22 54 15 18 -10 41 -26 25 -16 -16 -53 -1 -53 22 0 12
-7 19 -20 19 -13 0 -20 -7 -20 -19z m70 -71 c11 -11 20 -33 20 -50 0 -61 -77
-93 -120 -50 -43 43 -11 120 50 120 17 0 39 -9 50 -20z"/>
</g>
</svg>
