<svg xmlns="http://www.w3.org/2000/svg" width="200" height="70.786" viewBox="305.5 906.502 200 70.786"><g data-name="Union 2"><path d="M323.102 966.5H311.5c-3.314 0-6-2.685-6-6v-47.998c0-3.315 2.686-6 6-6h188a6 6 0 0 1 6 6V960.5a6 6 0 0 1-6 6H335.897l-6.398 10.787-6.397-10.787Z" fill="#fff" fill-rule="evenodd"/><path d="M9388.103-3787H9376.5c-3.314 0-6-2.686-6-6v-48c0-3.314 2.686-6 6-6h188a6 6 0 0 1 6 6v48a6 6 0 0 1-6 6h-163.603l-6.398 10.787-6.397-10.787Z" stroke-linejoin="round" stroke-linecap="round" stroke="#707070" fill="transparent" transform="matrix(.995 0 0 .98587 -9017.648 4699.654)"/></g></svg>