<svg xmlns="http://www.w3.org/2000/svg" width="208.5" height="51" viewBox="0 0 208.5 51">
  <g id="Union_2" data-name="Union 2" transform="translate(-9363 3837)" fill="#fff">
    <path d="M 9565.5 -3786.500244140625 L 9376.5 -3786.500244140625 C 9373.4677734375 -3786.500244140625 9371 -3788.9677734375 9371 -3792.000732421875 L 9371 -3814.263671875 L 9371 -3814.54833984375 L 9370.7548828125 -3814.693603515625 L 9363.98046875 -3818.71240234375 L 9370.7548828125 -3822.731201171875 L 9371 -3822.87646484375 L 9371 -3823.1611328125 L 9371 -3830.999267578125 C 9371 -3834.032470703125 9373.4677734375 -3836.5 9376.5 -3836.5 L 9565.5 -3836.5 C 9568.5322265625 -3836.5 9571 -3834.032470703125 9571 -3830.999267578125 L 9571 -3792.000732421875 C 9571 -3788.9677734375 9568.5322265625 -3786.500244140625 9565.5 -3786.500244140625 Z" stroke="none"/>
    <path d="M 9565.5 -3787.000244140625 C 9568.2568359375 -3787.000244140625 9570.5 -3789.243408203125 9570.5 -3792.000732421875 L 9570.5 -3830.999267578125 C 9570.5 -3833.756591796875 9568.2568359375 -3836 9565.5 -3836 L 9376.5 -3836 C 9373.7431640625 -3836 9371.5 -3833.756591796875 9371.5 -3830.999267578125 L 9371.5 -3822.591552734375 L 9371.009765625 -3822.301025390625 L 9364.9599609375 -3818.71240234375 L 9371.5 -3814.833251953125 L 9371.5 -3792.000732421875 C 9371.5 -3789.243408203125 9373.7431640625 -3787.000244140625 9376.5 -3787.000244140625 L 9565.5 -3787.000244140625 M 9565.5 -3786.000244140625 L 9376.5 -3786.000244140625 C 9373.1875 -3786.000244140625 9370.5 -3788.685791015625 9370.5 -3792.000732421875 L 9370.5 -3814.263671875 L 9363 -3818.71240234375 L 9370.5 -3823.1611328125 L 9370.5 -3830.999267578125 C 9370.5 -3834.314208984375 9373.1875 -3837 9376.5 -3837 L 9565.5 -3837 C 9568.8125 -3837 9571.5 -3834.314208984375 9571.5 -3830.999267578125 L 9571.5 -3792.000732421875 C 9571.5 -3788.685791015625 9568.8125 -3786.000244140625 9565.5 -3786.000244140625 Z" stroke="none" fill="#707070"/>
  </g>
</svg>
