<svg xmlns="http://www.w3.org/2000/svg" xmlns:xlink="http://www.w3.org/1999/xlink" width="140" height="32" viewBox="0 0 140 32">
  <defs>
    <radialGradient id="radial-gradient" cx="0.532" cy="0.49" r="1.29" gradientTransform="translate(1.298 2.157) rotate(90) scale(1 0.296)" gradientUnits="objectBoundingBox">
      <stop offset="0" stop-color="#e41f1f"/>
      <stop offset="1" stop-color="#c62721"/>
    </radialGradient>
  </defs>
  <g id="グループ_15322" data-name="グループ 15322" transform="translate(-83 -895)">
    <rect id="長方形_15350" data-name="長方形 15350" width="140" height="32" transform="translate(83 895)" fill="#fff" opacity="0"/>
    <g id="グループ_15321" data-name="グループ 15321" transform="translate(-60.609 500.329)">
      <g id="グループ_622" data-name="グループ 622" transform="translate(145.609 396.907)">
        <path id="パス_95" data-name="パス 95" d="M196.645,417.484c7.418-4.17,14.675-10.133,14.24-15.352-.464-5.613-10.815-6.066-22.47-3.351-17.631,4.1-42.806,18.812-42.806,18.812l19.493-3.506c-4.7,6.2-2.114,10.843,6.879,10.843,16.027.12,67.5-10.786,67.5-10.786Zm-16.123.321c-6.943,2.7-13.026,2.9-13.553.447s4.657-6.644,11.6-9.343,13.026-2.9,13.564-.441S187.476,415.1,180.522,417.8Z" transform="translate(-145.609 -397.168)" fill="url(#radial-gradient)"/>
      </g>
      <g id="グループ_626" data-name="グループ 626" transform="translate(212.197 396.671)">
        <g id="グループ_623" data-name="グループ 623" transform="translate(0 11.209)">
          <path id="パス_96" data-name="パス 96" d="M286.875,423.888l-1.215-.115a1.338,1.338,0,0,1,.195-.5,1.134,1.134,0,0,1,.373-.315,1.475,1.475,0,0,1,.481-.155,4.1,4.1,0,0,1,.67-.051,5.021,5.021,0,0,1,.916.063,1.254,1.254,0,0,1,.578.264.975.975,0,0,1,.258.4,1.586,1.586,0,0,1,.092.493v1.46a1.586,1.586,0,0,0,.029.367,1.542,1.542,0,0,0,.131.338h-1.2c-.04-.08-.074-.143-.091-.189s-.029-.12-.046-.212a1.729,1.729,0,0,1-.493.344,2.081,2.081,0,0,1-.785.137,1.309,1.309,0,0,1-.9-.275.933.933,0,0,1-.086-1.3,1.476,1.476,0,0,1,.819-.366c.475-.092.785-.161.928-.2a3.693,3.693,0,0,0,.447-.149.451.451,0,0,0-.1-.326.483.483,0,0,0-.344-.092.854.854,0,0,0-.47.1A.527.527,0,0,0,286.875,423.888Zm1.105.67a5.48,5.48,0,0,1-.544.167,1.154,1.154,0,0,0-.492.206.311.311,0,0,0-.109.235.323.323,0,0,0,.1.246.454.454,0,0,0,.309.1.786.786,0,0,0,.4-.109.622.622,0,0,0,.263-.252.889.889,0,0,0,.075-.384Z" transform="translate(-285.563 -421.55)" fill="#a9adb2"/>
          <path id="パス_97" data-name="パス 97" d="M294.882,422.822h1.186v.487a1.587,1.587,0,0,1,.516-.435,1.4,1.4,0,0,1,.63-.126,1.178,1.178,0,0,1,.63.143.973.973,0,0,1,.378.418,1.95,1.95,0,0,1,.55-.446,1.439,1.439,0,0,1,.6-.115,1.089,1.089,0,0,1,.836.315,1.41,1.41,0,0,1,.3,1v2.073h-1.266v-1.885a.512.512,0,0,0-.092-.332.374.374,0,0,0-.321-.178.463.463,0,0,0-.361.16.828.828,0,0,0-.137.527v1.707h-1.272v-1.822a1.576,1.576,0,0,0-.023-.3.45.45,0,0,0-.143-.2.377.377,0,0,0-.235-.08.47.47,0,0,0-.366.166.842.842,0,0,0-.138.539v1.689h-1.271Z" transform="translate(-290.448 -421.55)" fill="#a9adb2"/>
          <path id="パス_98" data-name="パス 98" d="M311.8,426.215h-1.186v-.532a1.712,1.712,0,0,1-.533.47,1.388,1.388,0,0,1-.665.143,1.079,1.079,0,0,1-.825-.315,1.374,1.374,0,0,1-.3-.963V422.9h1.283v1.822a.708.708,0,0,0,.115.447.406.406,0,0,0,.326.126.459.459,0,0,0,.372-.172,1.049,1.049,0,0,0,.143-.624v-1.6H311.8Z" transform="translate(-297.479 -421.632)" fill="#a9adb2"/>
          <path id="パス_99" data-name="パス 99" d="M316.806,425.211l1.266-.115a.593.593,0,0,0,.218.321.787.787,0,0,0,.779-.011.238.238,0,0,0-.034-.418,3.4,3.4,0,0,0-.55-.126,5.61,5.61,0,0,1-.922-.217.944.944,0,0,1-.436-.333.836.836,0,0,1-.177-.527.863.863,0,0,1,.195-.567,1.132,1.132,0,0,1,.527-.355,2.849,2.849,0,0,1,.9-.115,3.264,3.264,0,0,1,.871.086,1.145,1.145,0,0,1,.475.287,1.405,1.405,0,0,1,.309.515l-1.2.115a.39.39,0,0,0-.155-.235.644.644,0,0,0-.367-.1.52.52,0,0,0-.315.08.237.237,0,0,0-.1.183.206.206,0,0,0,.126.189,2.206,2.206,0,0,0,.544.108,3.872,3.872,0,0,1,.945.2,1.069,1.069,0,0,1,.475.366.891.891,0,0,1,.16.521,1.023,1.023,0,0,1-.172.556,1.176,1.176,0,0,1-.544.435,2.73,2.73,0,0,1-1.02.16,2.374,2.374,0,0,1-1.3-.264A1.183,1.183,0,0,1,316.806,425.211Z" transform="translate(-301.941 -421.55)" fill="#a9adb2"/>
          <path id="パス_100" data-name="パス 100" d="M329.028,424.8H326.48a.729.729,0,0,0,.166.452.574.574,0,0,0,.475.212.681.681,0,0,0,.361-.091,1,1,0,0,0,.217-.206l1.249.114a1.766,1.766,0,0,1-.687.716,2.544,2.544,0,0,1-1.163.218,2.351,2.351,0,0,1-1.037-.183,1.575,1.575,0,0,1-.624-.59,1.8,1.8,0,0,1-.252-.956,1.666,1.666,0,0,1,.5-1.255,1.91,1.91,0,0,1,1.38-.481,2.387,2.387,0,0,1,1.123.218,1.4,1.4,0,0,1,.624.624,2.23,2.23,0,0,1,.217,1.065Zm-1.294-.607a.849.849,0,0,0-.2-.527.578.578,0,0,0-.43-.16.557.557,0,0,0-.481.241.851.851,0,0,0-.149.447Z" transform="translate(-306.333 -421.55)" fill="#a9adb2"/>
          <path id="パス_101" data-name="パス 101" d="M334.5,422.822h1.186v.487a1.652,1.652,0,0,1,.515-.435,1.42,1.42,0,0,1,.63-.126,1.166,1.166,0,0,1,.63.143,1.02,1.02,0,0,1,.384.418,2.011,2.011,0,0,1,.538-.446,1.5,1.5,0,0,1,.613-.115,1.076,1.076,0,0,1,.83.315,1.412,1.412,0,0,1,.3,1v2.073h-1.272v-1.885a.48.48,0,0,0-.091-.332.373.373,0,0,0-.315-.178.485.485,0,0,0-.366.16.832.832,0,0,0-.132.527v1.707h-1.272v-1.822a1.135,1.135,0,0,0-.028-.3.4.4,0,0,0-.143-.2.376.376,0,0,0-.235-.08.452.452,0,0,0-.361.166.81.81,0,0,0-.143.539v1.689H334.5Z" transform="translate(-311.219 -421.55)" fill="#a9adb2"/>
          <path id="パス_102" data-name="パス 102" d="M351.465,424.8h-2.549a.764.764,0,0,0,.167.452.577.577,0,0,0,.481.212.673.673,0,0,0,.355-.091.877.877,0,0,0,.217-.206l1.255.114a1.814,1.814,0,0,1-.693.716,2.525,2.525,0,0,1-1.162.218,2.336,2.336,0,0,1-1.037-.183,1.671,1.671,0,0,1-.63-.59,1.853,1.853,0,0,1-.24-.956,1.663,1.663,0,0,1,.492-1.255,1.91,1.91,0,0,1,1.38-.481,2.371,2.371,0,0,1,1.123.218,1.368,1.368,0,0,1,.624.624,2.23,2.23,0,0,1,.218,1.065Zm-1.289-.607a.853.853,0,0,0-.2-.527.618.618,0,0,0-.9.08.85.85,0,0,0-.155.447Z" transform="translate(-318.098 -421.55)" fill="#a9adb2"/>
          <path id="パス_103" data-name="パス 103" d="M356.909,422.822h1.186v.539a1.808,1.808,0,0,1,.544-.47,1.362,1.362,0,0,1,.658-.143,1.076,1.076,0,0,1,.831.315,1.344,1.344,0,0,1,.3.968v2.1h-1.277v-1.822a.645.645,0,0,0-.115-.441.426.426,0,0,0-.326-.132.479.479,0,0,0-.383.178,1.037,1.037,0,0,0-.144.624v1.592h-1.271Z" transform="translate(-322.964 -421.55)" fill="#a9adb2"/>
          <path id="パス_104" data-name="パス 104" d="M367.192,420.231V421.5h.7v.928h-.7v1.174a.637.637,0,0,0,.04.286.233.233,0,0,0,.217.1,1.517,1.517,0,0,0,.4-.08l.092.876a4.082,4.082,0,0,1-.882.1,1.439,1.439,0,0,1-.693-.126.74.74,0,0,1-.332-.367,2.235,2.235,0,0,1-.109-.8v-1.169h-.464V421.5h.464v-.613Z" transform="translate(-327.445 -420.231)" fill="#a9adb2"/>
          <path id="パス_105" data-name="パス 105" d="M376.364,427.4v-4.577h1.189v.493a1.46,1.46,0,0,1,.452-.418,1.243,1.243,0,0,1,.613-.149,1.178,1.178,0,0,1,1.031.51,2.109,2.109,0,0,1,.361,1.254,1.8,1.8,0,0,1-.395,1.26,1.291,1.291,0,0,1-1,.441,1.336,1.336,0,0,1-.533-.1,1.173,1.173,0,0,1-.435-.292V427.4Zm1.269-2.91a.874.874,0,0,0,.172.59.525.525,0,0,0,.418.189.472.472,0,0,0,.373-.183,1.024,1.024,0,0,0,.149-.618.977.977,0,0,0-.155-.6.483.483,0,0,0-.384-.189.525.525,0,0,0-.407.2A.933.933,0,0,0,377.633,424.489Z" transform="translate(-333.162 -421.55)" fill="#a9adb2"/>
          <path id="パス_106" data-name="パス 106" d="M385.364,422.822h1.191v.539a1.373,1.373,0,0,1,.355-.481.727.727,0,0,1,.452-.132,1.317,1.317,0,0,1,.619.177l-.4.9a1.014,1.014,0,0,0-.355-.1.443.443,0,0,0-.39.212,1.991,1.991,0,0,0-.2,1.082v1.111h-1.277Z" transform="translate(-337.88 -421.55)" fill="#a9adb2"/>
          <path id="パス_107" data-name="パス 107" d="M391.191,424.489a1.667,1.667,0,0,1,.51-1.249,2.225,2.225,0,0,1,2.893.086,1.679,1.679,0,0,1,.407,1.146,1.644,1.644,0,0,1-.5,1.249,2.254,2.254,0,0,1-2.7.086A1.632,1.632,0,0,1,391.191,424.489Zm1.272-.006a1,1,0,0,0,.177.659.587.587,0,0,0,.453.212.561.561,0,0,0,.452-.212,1.041,1.041,0,0,0,.177-.67,1,1,0,0,0-.177-.636.575.575,0,0,0-.441-.212.589.589,0,0,0-.464.218A.964.964,0,0,0,392.463,424.484Z" transform="translate(-340.935 -421.55)" fill="#a9adb2"/>
          <path id="パス_108" data-name="パス 108" d="M399.773,421.5h1.266v3.214a3.03,3.03,0,0,1-.086.871.846.846,0,0,1-.333.419,1.272,1.272,0,0,1-.687.16,5.063,5.063,0,0,1-.905-.109l.184-.928a1.177,1.177,0,0,0,.223.034.316.316,0,0,0,.252-.109.867.867,0,0,0,.086-.447Zm0-1.272h1.266v.883h-1.266Z" transform="translate(-345.043 -420.231)" fill="#a9adb2"/>
          <path id="パス_109" data-name="パス 109" d="M408.482,424.8h-2.549a.764.764,0,0,0,.16.452.593.593,0,0,0,.481.212.646.646,0,0,0,.355-.091.887.887,0,0,0,.224-.206l1.255.114a1.856,1.856,0,0,1-.693.716,2.545,2.545,0,0,1-1.163.218,2.351,2.351,0,0,1-1.037-.183,1.579,1.579,0,0,1-.625-.59,1.805,1.805,0,0,1-.252-.956,1.688,1.688,0,0,1,.5-1.255,1.916,1.916,0,0,1,1.375-.481,2.378,2.378,0,0,1,1.128.218,1.44,1.44,0,0,1,.63.624,2.305,2.305,0,0,1,.212,1.065Zm-1.289-.607a.818.818,0,0,0-.2-.527.574.574,0,0,0-.424-.16.566.566,0,0,0-.487.241.852.852,0,0,0-.149.447Z" transform="translate(-347.984 -421.55)" fill="#a9adb2"/>
          <path id="パス_110" data-name="パス 110" d="M416.249,424.833l1.208.138a1.657,1.657,0,0,1-.326.659,1.492,1.492,0,0,1-.584.429,2.24,2.24,0,0,1-.9.155,3.176,3.176,0,0,1-.882-.1,1.506,1.506,0,0,1-.607-.315,1.661,1.661,0,0,1-.4-.516,1.8,1.8,0,0,1-.143-.785,1.908,1.908,0,0,1,.172-.853,1.552,1.552,0,0,1,.355-.447,1.671,1.671,0,0,1,.452-.3,2.658,2.658,0,0,1,.957-.149,2.211,2.211,0,0,1,1.243.292,1.5,1.5,0,0,1,.6.848l-1.2.16a.54.54,0,0,0-.206-.326.671.671,0,0,0-.395-.109.624.624,0,0,0-.51.229,1.008,1.008,0,0,0-.195.681.908.908,0,0,0,.189.619.641.641,0,0,0,.492.212.632.632,0,0,0,.418-.132A.732.732,0,0,0,416.249,424.833Z" transform="translate(-352.692 -421.55)" fill="#a9adb2"/>
          <path id="パス_111" data-name="パス 111" d="M424.21,420.231V421.5h.693v.928h-.693v1.174a.639.639,0,0,0,.04.286.233.233,0,0,0,.218.1,1.517,1.517,0,0,0,.4-.08l.091.876a4.109,4.109,0,0,1-.876.1,1.465,1.465,0,0,1-.7-.126.718.718,0,0,1-.332-.367,2.122,2.122,0,0,1-.109-.8v-1.169h-.47V421.5h.47v-.613Z" transform="translate(-357.331 -420.231)" fill="#a9adb2"/>
        </g>
        <g id="グループ_625" data-name="グループ 625" transform="translate(0.246)">
          <path id="パス_112" data-name="パス 112" d="M406.637,402.124a5.453,5.453,0,1,0,5.454-5.453A5.464,5.464,0,0,0,406.637,402.124Zm2.756,0a2.7,2.7,0,1,1,2.7,2.7A2.7,2.7,0,0,1,409.393,402.124Z" transform="translate(-349.278 -396.671)" fill="#b42323"/>
          <g id="グループ_624" data-name="グループ 624" transform="translate(0 0.326)">
            <path id="パス_113" data-name="パス 113" d="M293.275,405.766h-3.511l-.5,1.661h-3.179l3.769-10.07h3.42l3.763,10.07h-3.26Zm-.658-2.177-1.094-3.62-1.1,3.62Z" transform="translate(-286.081 -397.357)" fill="#231815"/>
            <path id="パス_114" data-name="パス 114" d="M332.83,397.357h8.334V399.5h-5.218v1.621h4.834v2.045h-4.834v1.994h5.367v2.268H332.83Z" transform="translate(-310.587 -397.357)" fill="#231815"/>
            <path id="パス_115" data-name="パス 115" d="M364.879,397.357h5.178a3.567,3.567,0,0,1,2.535.8,3.037,3.037,0,0,1,.842,2.3,3.112,3.112,0,0,1-.923,2.389,3.983,3.983,0,0,1-2.8.859h-1.707v3.723h-3.127Zm3.127,4.3h.774a2,2,0,0,0,1.272-.315,1.015,1.015,0,0,0,.366-.8,1.117,1.117,0,0,0-.321-.808,1.621,1.621,0,0,0-1.192-.332h-.9Z" transform="translate(-327.388 -397.357)" fill="#231815"/>
            <path id="パス_116" data-name="パス 116" d="M385.7,407.427v-10.07h5.184a7.474,7.474,0,0,1,2.2.247,2.351,2.351,0,0,1,1.226.916,2.759,2.759,0,0,1,.47,1.632,2.689,2.689,0,0,1-1.335,2.429,3.723,3.723,0,0,1-1.094.395,3.147,3.147,0,0,1,.814.378,3.1,3.1,0,0,1,.492.527,3.517,3.517,0,0,1,.436.63l1.506,2.916h-3.511l-1.656-3.076a2.365,2.365,0,0,0-.561-.779,1.331,1.331,0,0,0-.762-.235h-.269v4.09Zm3.139-6h1.3a4.537,4.537,0,0,0,.813-.137.837.837,0,0,0,.5-.315,1.025,1.025,0,0,0-.115-1.335,1.844,1.844,0,0,0-1.151-.258H388.84Z" transform="translate(-338.303 -397.357)" fill="#231815"/>
          </g>
          <path id="パス_117" data-name="パス 117" d="M308.535,402.124a5.451,5.451,0,0,0,10.379,2.337l-2.48-1.18a2.7,2.7,0,1,1,.092-2.091l2.583-.951a5.455,5.455,0,0,0-10.574,1.885Z" transform="translate(-297.852 -396.671)" fill="#231815"/>
        </g>
      </g>
    </g>
  </g>
</svg>
