<svg xmlns="http://www.w3.org/2000/svg" width="22" height="22" viewBox="0 0 22 22">
  <g id="Group_1816" data-name="Group 1816" transform="translate(-1031 -404)">
    <g id="Group_1187" data-name="Group 1187" transform="translate(-61 -39)">
      <g id="Path_572" data-name="Path 572" transform="translate(1092 443)" fill="#003a16">
        <path d="M 11 21.5 C 5.210279941558838 21.5 0.5 16.78972053527832 0.5 11 C 0.5 5.210279941558838 5.210279941558838 0.5 11 0.5 C 16.06479072570801 0.5 20.32101058959961 4.086550235748291 21.35033988952637 9.221850395202637 L 21.35091018676758 9.224710464477539 L 21.35152053833008 9.227560043334961 C 21.42543029785156 9.575180053710938 21.5 10.25806045532227 21.5 11 C 21.5 13.51521015167236 20.6197395324707 15.84873962402344 18.88367080688477 17.93574905395508 C 18.01213073730469 18.99023056030273 16.84934997558594 19.87577056884766 15.52000045776367 20.49782943725586 C 14.11894035339355 21.1534595489502 12.55595016479492 21.5 11 21.5 Z" stroke="none"/>
        <path d="M 11 1 C 5.485979080200195 1 1 5.485979080200195 1 11 C 1 16.51401901245117 5.485979080200195 21 11 21 C 12.48320007324219 21 13.97290992736816 20.66975021362305 15.30808067321777 20.04496002197266 C 16.57080078125 19.45408058166504 17.67359924316406 18.61499977111816 18.49926948547363 17.61598968505859 C 20.15863037109375 15.62119007110596 21 13.39525032043457 21 11 C 21 10.29817008972168 20.9286994934082 9.643139839172363 20.86244964599609 9.33152961730957 L 20.8600902557373 9.320110321044922 C 19.87817001342773 4.421360015869141 15.8235502243042 1 11 1 M 11 0 C 16.32789039611816 0 20.77108001708984 3.787860870361328 21.84058952331543 9.123579978942871 C 21.92548942565918 9.522919654846191 22 10.25275993347168 22 11 C 22 13.66697978973389 21.05087089538574 16.11228942871094 19.2680606842041 18.25550079345703 C 17.45428085327148 20.45004081726074 14.40814971923828 22 11 22 C 4.924869537353516 22 0 17.07513046264648 0 11 C 0 4.924869537353516 4.924869537353516 0 11 0 Z" stroke="none" fill="#003a16"/>
      </g>
      <g id="Group_1188" data-name="Group 1188" transform="translate(1108 3)">
        <rect id="Rectangle_321" data-name="Rectangle 321" width="12" height="2" rx="1" transform="translate(-11 450)" fill="#fff"/>
        <rect id="Rectangle_322" data-name="Rectangle 322" width="12" height="2" rx="1" transform="translate(-4 445) rotate(90)" fill="#fff"/>
      </g>
    </g>
  </g>
</svg>
