<svg xmlns="http://www.w3.org/2000/svg" width="120.499" height="35.001" viewBox="0 0 120.499 35.001">
  <g id="Union_2" data-name="Union 2" transform="translate(-9363.001 3836)" fill="#fff">
    <path d="M 9477.5 -3801.4990234375 L 9376.5 -3801.4990234375 C 9373.4677734375 -3801.4990234375 9371 -3803.96630859375 9371 -3806.9990234375 L 9371 -3814.265380859375 L 9371 -3814.550048828125 L 9370.7548828125 -3814.6953125 L 9363.9814453125 -3818.713623046875 L 9370.7548828125 -3822.732177734375 L 9371 -3822.87744140625 L 9371 -3823.162109375 L 9371 -3830 C 9371 -3833.03271484375 9373.4677734375 -3835.5 9376.5 -3835.5 L 9477.5 -3835.5 C 9480.5322265625 -3835.5 9483 -3833.03271484375 9483 -3830 L 9483 -3806.9990234375 C 9483 -3803.96630859375 9480.5322265625 -3801.4990234375 9477.5 -3801.4990234375 Z" stroke="none"/>
    <path d="M 9477.5 -3801.9990234375 C 9480.2568359375 -3801.9990234375 9482.5 -3804.241943359375 9482.5 -3806.9990234375 L 9482.5 -3830 C 9482.5 -3832.757080078125 9480.2568359375 -3835 9477.5 -3835 L 9376.5 -3835 C 9373.7431640625 -3835 9371.5 -3832.757080078125 9371.5 -3830 L 9371.5 -3822.592529296875 L 9371.009765625 -3822.302001953125 L 9364.9609375 -3818.713623046875 L 9371.5 -3814.8349609375 L 9371.5 -3806.9990234375 C 9371.5 -3804.241943359375 9373.7431640625 -3801.9990234375 9376.5 -3801.9990234375 L 9477.5 -3801.9990234375 M 9477.5 -3800.9990234375 L 9376.5 -3800.9990234375 C 9373.1875 -3800.9990234375 9370.5 -3803.68603515625 9370.5 -3806.9990234375 L 9370.5 -3814.265380859375 L 9363.0009765625 -3818.713623046875 L 9370.5 -3823.162109375 L 9370.5 -3830 C 9370.5 -3833.31298828125 9373.1875 -3836 9376.5 -3836 L 9477.5 -3836 C 9480.8134765625 -3836 9483.5 -3833.31298828125 9483.5 -3830 L 9483.5 -3806.9990234375 C 9483.5 -3803.68603515625 9480.8134765625 -3800.9990234375 9477.5 -3800.9990234375 Z" stroke="none" fill="#707070"/>
  </g>
</svg>
