<svg xmlns="http://www.w3.org/2000/svg" width="227.5" height="177.001" viewBox="297.5 916.999 227.5 177.001"><g data-name="Union 2"><path d="M311.001 1094a6 6 0 0 1-6.001-6V939.736l-7.5-4.45 7.5-4.447v-7.84c0-3.312 2.687-6 6.001-6H519c3.314 0 6 2.688 6 6v165a6 6 0 0 1-6 6H311.001Z" fill="#fff" fill-rule="evenodd"/><path d="M9376.501-3660a6 6 0 0 1-6.001-6v-148.264l-7.5-4.45 7.5-4.447v-7.84c0-3.312 2.687-6 6.001-6H9584.5c3.314 0 6 2.688 6 6v165a6 6 0 0 1-6 6h-207.999Z" stroke-linejoin="round" stroke-linecap="round" stroke="#707070" fill="transparent" transform="matrix(.9956 0 0 .99435 -9023.844 4732.822)"/></g></svg>