<svg xmlns="http://www.w3.org/2000/svg" width="200" height="134" viewBox="0 0 200 134">
  <g id="グループ_2735" data-name="グループ 2735" transform="translate(402 -3372.414)">
    <rect id="長方形_14651" data-name="長方形 14651" width="200" height="134" transform="translate(-402 3372.414)" fill="#ddd"/>
    <path id="パス_2702" data-name="パス 2702" d="M-383.463,3386.151l47.854,47.854-47.854,47.854" transform="translate(6.648 5.116)" fill="none" stroke="#fff" stroke-width="1"/>
    <path id="パス_2703" data-name="パス 2703" d="M-335.609,3386.151l-47.854,47.854,47.854,47.854" transform="translate(107.858 5.116)" fill="none" stroke="#fff" stroke-width="1"/>
    <rect id="長方形_14652" data-name="長方形 14652" width="102.91" height="39.379" transform="translate(-353.958 3419.78)" fill="#ddd"/>
    <path id="パス_2704" data-name="パス 2704" d="M-89.04-28.56v15h3.087V-23.6h.042l6.238,10.039h3.3v-15h-3.087V-18.5h-.042l-6.259-10.06Zm17.894,9.577a6.517,6.517,0,0,1,.126-1.281,3.269,3.269,0,0,1,.431-1.113,2.418,2.418,0,0,1,.809-.788,2.4,2.4,0,0,1,1.26-.3,2.457,2.457,0,0,1,1.271.3,2.388,2.388,0,0,1,.819.788A3.269,3.269,0,0,1-66-20.264a6.517,6.517,0,0,1,.126,1.281A6.359,6.359,0,0,1-66-17.712a3.385,3.385,0,0,1-.431,1.113,2.267,2.267,0,0,1-.819.788,2.527,2.527,0,0,1-1.271.294,2.468,2.468,0,0,1-1.26-.294,2.293,2.293,0,0,1-.809-.788,3.385,3.385,0,0,1-.431-1.113A6.359,6.359,0,0,1-71.146-18.983Zm-2.982,0a6.579,6.579,0,0,0,.4,2.352,5.1,5.1,0,0,0,1.134,1.8,4.961,4.961,0,0,0,1.764,1.145,6.347,6.347,0,0,0,2.31.4,6.431,6.431,0,0,0,2.321-.4,4.943,4.943,0,0,0,1.775-1.145,5.1,5.1,0,0,0,1.134-1.8,6.579,6.579,0,0,0,.4-2.352,6.666,6.666,0,0,0-.4-2.363,5.085,5.085,0,0,0-1.134-1.806A5.061,5.061,0,0,0-66.2-24.307a6.284,6.284,0,0,0-2.321-.41,6.2,6.2,0,0,0-2.31.41A5.082,5.082,0,0,0-72.6-23.152a5.085,5.085,0,0,0-1.134,1.806A6.666,6.666,0,0,0-74.128-18.983Zm19.322-9.577v15h3.3v-15Zm5.965,4.137v10.858h2.982v-6.3a3.069,3.069,0,0,1,.231-1.292,2.085,2.085,0,0,1,.557-.756,1.847,1.847,0,0,1,.672-.357,2.235,2.235,0,0,1,.557-.095,1.981,1.981,0,0,1,1.082.242,1.34,1.34,0,0,1,.525.641,2.682,2.682,0,0,1,.179.872q.021.473.021.956v6.091h2.982v-6.049a6.763,6.763,0,0,1,.074-1,2.523,2.523,0,0,1,.294-.882,1.75,1.75,0,0,1,.609-.63,1.908,1.908,0,0,1,1.019-.242,2.013,2.013,0,0,1,1,.21,1.4,1.4,0,0,1,.557.567,2.184,2.184,0,0,1,.231.84q.042.483.042,1.029v6.154h2.982v-7.267a4.9,4.9,0,0,0-.294-1.8,3.079,3.079,0,0,0-.819-1.208,3.213,3.213,0,0,0-1.26-.672,5.791,5.791,0,0,0-1.6-.21,3.49,3.49,0,0,0-1.964.546A4.622,4.622,0,0,0-39.5-22.91a2.641,2.641,0,0,0-1.292-1.407,4.371,4.371,0,0,0-1.88-.4,3.84,3.84,0,0,0-1.9.462,4.247,4.247,0,0,0-1.418,1.3h-.042v-1.47Zm18.818,3.339a3.464,3.464,0,0,1,.525-1.743,3.575,3.575,0,0,1,1.176-1.113,5.125,5.125,0,0,1,1.607-.6,9.134,9.134,0,0,1,1.8-.179,12.17,12.17,0,0,1,1.659.116,5.075,5.075,0,0,1,1.533.452,3.021,3.021,0,0,1,1.134.935,2.612,2.612,0,0,1,.441,1.586v5.65a11.346,11.346,0,0,0,.084,1.407,2.544,2.544,0,0,0,.294,1.008H-22.8a4.28,4.28,0,0,1-.137-.515,4.481,4.481,0,0,1-.074-.536,3.886,3.886,0,0,1-1.68,1.029,6.744,6.744,0,0,1-1.974.294,5.334,5.334,0,0,1-1.449-.189,3.319,3.319,0,0,1-1.176-.588,2.737,2.737,0,0,1-.788-1.008,3.408,3.408,0,0,1-.284-1.449,3.166,3.166,0,0,1,.326-1.523,2.722,2.722,0,0,1,.84-.956,3.764,3.764,0,0,1,1.176-.536,12.556,12.556,0,0,1,1.334-.284q.672-.105,1.323-.168a7.957,7.957,0,0,0,1.155-.189,2.014,2.014,0,0,0,.8-.368.807.807,0,0,0,.273-.7,1.582,1.582,0,0,0-.158-.767,1.158,1.158,0,0,0-.42-.441,1.652,1.652,0,0,0-.609-.21,4.984,4.984,0,0,0-.746-.053,2.264,2.264,0,0,0-1.386.378,1.688,1.688,0,0,0-.588,1.26Zm6.889,2.205a1.338,1.338,0,0,1-.473.263,4.826,4.826,0,0,1-.609.158q-.326.063-.683.105t-.714.105a5.386,5.386,0,0,0-.662.168,1.956,1.956,0,0,0-.567.284,1.348,1.348,0,0,0-.389.452,1.453,1.453,0,0,0-.147.693,1.4,1.4,0,0,0,.147.672,1.127,1.127,0,0,0,.4.431,1.684,1.684,0,0,0,.588.221,3.753,3.753,0,0,0,.693.063,2.636,2.636,0,0,0,1.365-.294,1.967,1.967,0,0,0,.714-.7,2.25,2.25,0,0,0,.284-.83,5.7,5.7,0,0,0,.053-.672Zm10.354,2.751a2.112,2.112,0,0,1-1.155-.294,2.331,2.331,0,0,1-.746-.756,3.151,3.151,0,0,1-.4-1.04,5.929,5.929,0,0,1-.116-1.166,4.877,4.877,0,0,1,.137-1.166,2.878,2.878,0,0,1,.441-.987,2.274,2.274,0,0,1,.756-.683,2.187,2.187,0,0,1,1.082-.252,2.45,2.45,0,0,1,1.218.273,2.174,2.174,0,0,1,.777.735,3.174,3.174,0,0,1,.42,1.061,6.158,6.158,0,0,1,.126,1.271,3.962,3.962,0,0,1-.158,1.124,2.977,2.977,0,0,1-.473.956,2.329,2.329,0,0,1-.8.672A2.372,2.372,0,0,1-12.781-16.127ZM-7.4-14.258V-24.423H-10.24v1.449h-.042a3.244,3.244,0,0,0-1.355-1.344,4.2,4.2,0,0,0-1.88-.4,4.383,4.383,0,0,0-2.006.441,4.314,4.314,0,0,0-1.46,1.187,5.3,5.3,0,0,0-.893,1.722,6.768,6.768,0,0,0-.3,2.027,8.263,8.263,0,0,0,.263,2.111,4.907,4.907,0,0,0,.83,1.743,3.985,3.985,0,0,0,1.449,1.176,4.744,4.744,0,0,0,2.1.431,4.456,4.456,0,0,0,1.88-.41,2.953,2.953,0,0,0,1.376-1.271h.042v1.428A2.965,2.965,0,0,1-10.8-12.22a2.165,2.165,0,0,1-1.838.756,2.94,2.94,0,0,1-1.407-.326,1.7,1.7,0,0,1-.819-1.166h-2.961a3.136,3.136,0,0,0,.515,1.586,3.716,3.716,0,0,0,1.134,1.082,5.171,5.171,0,0,0,1.512.62,6.946,6.946,0,0,0,1.628.2,7.334,7.334,0,0,0,2.982-.5A4.567,4.567,0,0,0-8.35-11.2a3.677,3.677,0,0,0,.767-1.565A7.27,7.27,0,0,0-7.4-14.258Zm9.7-5.9H-2.553a3.423,3.423,0,0,1,.137-.714,2.192,2.192,0,0,1,.4-.756,2.259,2.259,0,0,1,.756-.6,2.594,2.594,0,0,1,1.187-.242,2.094,2.094,0,0,1,1.628.588A3.447,3.447,0,0,1,2.3-20.159Zm-4.851,1.89H5.281a7.666,7.666,0,0,0-.21-2.415,5.912,5.912,0,0,0-.956-2.058,4.82,4.82,0,0,0-1.691-1.439,5.163,5.163,0,0,0-2.415-.536,5.624,5.624,0,0,0-2.258.441A5.338,5.338,0,0,0-4-23.068a5.323,5.323,0,0,0-1.134,1.817,6.333,6.333,0,0,0-.4,2.268,6.611,6.611,0,0,0,.389,2.31,5.246,5.246,0,0,0,1.1,1.806A4.8,4.8,0,0,0-2.3-13.7a6.2,6.2,0,0,0,2.31.41,5.688,5.688,0,0,0,3.15-.84,4.984,4.984,0,0,0,1.932-2.793H2.466a1.873,1.873,0,0,1-.8.956,2.659,2.659,0,0,1-1.554.452,2.666,2.666,0,0,1-1.932-.651A3.015,3.015,0,0,1-2.553-18.269Z" transform="translate(-260.213 3458.316)" fill="#fff"/>
  </g>
</svg>
